<?xml version="1.0" standalone="no"?>
<!DOCTYPE svg PUBLIC "-//W3C//DTD SVG 1.1//EN" "http://www.w3.org/Graphics/SVG/1.1/DTD/svg11.dtd" >
<svg xmlns="http://www.w3.org/2000/svg">
<metadata></metadata>
<defs>
<font id="senticosansdtmedium_italic" horiz-adv-x="1183" >
<font-face units-per-em="2048" ascent="1638" descent="-410" />
<missing-glyph horiz-adv-x="491" />
<glyph unicode="&#xfb03;" horiz-adv-x="1923" d="M121 -422l217 1233h-150l35 190h148l28 156q25 149 116.5 222t270.5 73q104 0 199 -18l-45 -187q-93 19 -164 19t-104 -30.5t-45 -100.5l-25 -134h447l28 156q25 149 116.5 222t270.5 73q104 0 199 -18l-45 -187q-93 19 -164 19t-104 -30.5t-45 -100.5l-25 -134h258 l-53 -190h-240l-209 -1202l-237 -31l217 1233h-449l-209 -1202zM1550 0l176 1006h232l-176 -1006h-232zM1761 1202q0 68 25 148q14 38 42 52.5t89 14.5t83.5 -13.5t22.5 -49.5q0 -90 -26 -152q-13 -37 -40 -50t-89 -13q-61 0 -84 13.5t-23 49.5z" />
<glyph unicode="&#xfb04;" horiz-adv-x="1988" d="M121 -422l217 1233h-150l35 190h148l28 156q25 149 116.5 222t270.5 73q104 0 199 -18l-45 -187q-93 19 -164 19t-104 -30.5t-45 -100.5l-25 -134h447l28 156q25 149 116.5 222t270.5 73q104 0 199 -18l-45 -187q-93 19 -164 19t-104 -30.5t-45 -100.5l-25 -134h258 l-53 -190h-240l-209 -1202l-237 -31l217 1233h-449l-209 -1202zM1567 111q0 37 20 151l203 1161l240 31l-213 -1202q-1 -5 -3 -13.5t-3 -16.5t-1 -17q0 -39 48 -39q43 0 104 18l14 -172q-124 -32 -243 -32q-91 0 -128.5 32t-37.5 99z" />
<glyph horiz-adv-x="0" />
<glyph horiz-adv-x="682" />
<glyph unicode=" "  horiz-adv-x="491" />
<glyph unicode="&#x09;" horiz-adv-x="491" />
<glyph unicode="&#xa0;" horiz-adv-x="491" />
<glyph unicode="!" horiz-adv-x="542" d="M160 49q0 52 22 135q11 48 39 66t96 18q61 0 84 -14t23 -51q0 -85 -25 -148q-12 -40 -40 -54.5t-93 -14.5q-61 0 -83.5 13.5t-22.5 49.5zM250 381l39 352l112 680h236l-127 -680l-84 -352h-176z" />
<glyph unicode="&#x22;" horiz-adv-x="823" d="M326 961q0 16 2 28l51 371q6 41 19.5 51t52.5 10h67q32 0 42.5 -4.5t10.5 -23.5q0 -23 -4 -39l-84 -385q-4 -22 -14.5 -27.5t-42.5 -5.5h-55q-29 0 -37 4t-8 21zM678 961q0 16 2 28l51 371q6 41 19.5 51t52.5 10h67q32 0 43 -4.5t11 -23.5q0 -23 -4 -39l-84 -385 q-4 -22 -14.5 -27.5t-43.5 -5.5h-55q-29 0 -37 4t-8 21z" />
<glyph unicode="#" horiz-adv-x="1306" d="M141 432l56 160h204l101 311h-217l55 160h211l108 338h172l-108 -338h321l109 338h172l-108 -338h204l-53 -160h-201l-98 -311h209l-55 -160h-205l-109 -348h-174l111 348h-322l-108 -348h-174l110 348h-211zM575 592h320l100 311h-321z" />
<glyph unicode="$" d="M156 61l63 203q153 -69 316 -84l77 436q-82 24 -134.5 47.5t-92 56.5t-57 77t-17.5 106q0 208 99 332q107 138 340 158l36 204h179l-37 -206q169 -14 293 -56l-56 -207q-130 56 -270 70l-76 -418q163 -54 229 -113t66 -171q0 -94 -25.5 -189t-76.5 -160 q-51 -69 -131 -107t-201 -50l-35 -209h-180l37 205q-203 16 -346 75zM537 956q0 -44 24.5 -70t89.5 -52l66 364q-93 -13 -133 -72q-47 -65 -47 -170zM715 184q90 18 131 82q41 68 41 168q0 44 -24 73.5t-81 53.5z" />
<glyph unicode="%" horiz-adv-x="1845" d="M240 854q0 80 18 179t53 179q44 103 125.5 157t220.5 54q153 0 215 -61.5t62 -179.5q0 -81 -19 -182t-53 -181q-44 -102 -126 -154.5t-222 -52.5q-151 0 -212.5 61.5t-61.5 180.5zM424 868q0 -60 26 -83t91 -23q71 0 106.5 27.5t57.5 97.5q45 151 45 278q0 60 -26.5 83.5 t-92.5 23.5q-70 0 -105 -27t-57 -98q-45 -155 -45 -279zM547 29l848 1417l157 -55l-852 -1416zM1153 217q0 81 18.5 181t53.5 180q44 103 125 155.5t221 52.5q153 0 214.5 -61t61.5 -180q0 -82 -18 -182.5t-53 -180.5q-43 -101 -125.5 -153t-223.5 -52q-152 0 -213 61 t-61 179zM1337 233q0 -61 26 -83.5t93 -22.5q70 0 105 26.5t57 96.5q45 155 45 278q0 61 -26 84t-93 23q-70 0 -105 -27t-57 -98q-45 -151 -45 -277z" />
<glyph unicode="&#x26;" horiz-adv-x="1331" d="M141 266q0 91 28 168.5t80.5 138t108.5 104.5t131 89q-106 162 -106 272q0 93 34.5 167t95 120t139 70t169.5 24q152 0 237 -60t85 -179q0 -63 -17 -117.5t-44.5 -97t-75.5 -85t-98 -76.5t-124 -77l232 -287q85 94 164 228l170 -82q-129 -203 -217 -291l149 -182 l-182 -133l-135 170q-118 -87 -220 -128.5t-239 -41.5q-187 0 -276 76t-89 210zM371 313q0 -66 41.5 -103.5t119.5 -37.5q178 0 322 115l-262 336q-50 -33 -81 -57.5t-67.5 -63t-54.5 -86t-18 -103.5zM598 1063q0 -74 86 -195q50 24 87.5 47.5t75 56.5t57.5 75.5t20 91.5 q0 98 -136 98q-89 0 -139.5 -47t-50.5 -127z" />
<glyph unicode="'" horiz-adv-x="471" d="M326 961q0 16 2 28l51 371q6 41 19.5 51t52.5 10h67q32 0 42.5 -4.5t10.5 -23.5q0 -23 -4 -39l-84 -385q-4 -22 -14.5 -27.5t-42.5 -5.5h-55q-29 0 -37 4t-8 21z" />
<glyph unicode="(" horiz-adv-x="628" d="M201 309q0 192 40 378.5t111.5 348t162 300.5t200.5 261l162 -81q-457 -550 -457 -1223q0 -148 33.5 -284t105.5 -288l-190 -88q-168 306 -168 676z" />
<glyph unicode=")" horiz-adv-x="628" d="M-31 -279q222 270 337.5 569.5t115.5 653.5q0 282 -137 572l190 81q166 -309 166 -671q0 -359 -135.5 -691.5t-376.5 -601.5z" />
<glyph unicode="*" horiz-adv-x="1005" d="M280.5 1093.5q0.5 11.5 28.5 65.5q30 60 40 67q8 5 32 -3l45 -19l209 -90l27 242q1 10 8 53q4 29 15 34t69 5t67 -5t4 -34l-10 -53l-59 -242l241 90l54 19q29 9 35 0.5t12 -63.5v-1q9 -54 6 -65.5t-31 -20.5q-43 -12 -53 -14l-246 -60l123 -186l25 -43q12 -22 4.5 -32 t-60.5 -42q-52 -35 -64 -37.5t-24 19.5q-2 5 -9.5 19.5t-10.5 25.5l-96 205l-164 -205q-8 -11 -20.5 -25.5t-16.5 -19.5q-22 -22 -33 -19.5t-51 37.5q-41 33 -44.5 42.5t17.5 31.5q2 2 15.5 17t25.5 26l189 186l-226 60q-10 2 -19 4.5t-17.5 5.5t-12.5 4q-25 9 -24.5 20.5z " />
<glyph unicode="+" horiz-adv-x="1024" d="M201 489l30 177h306l53 309h182l-55 -309h305l-29 -177h-307l-53 -309h-180l53 309h-305z" />
<glyph unicode="," horiz-adv-x="503" d="M84 -203q0 11 20 51l60 111q12 24 12 31q0 8 -12 20q-21 21 -21 47q0 64 21 129q15 44 45 62t90 18q57 0 82 -13.5t25 -49.5q0 -27 -7 -62l-10 -69q-7 -48 -41 -101l-123 -207q-13 -18 -28 -18q-21 0 -62 21q-51 24 -51 30z" />
<glyph unicode="-" horiz-adv-x="753" d="M174 453l35 200h561l-35 -200h-561z" />
<glyph unicode="." horiz-adv-x="503" d="M141 49q0 60 21 135q14 47 42 65.5t95 18.5q61 0 84 -14t23 -51q0 -78 -25 -148q-14 -40 -41.5 -54.5t-91.5 -14.5q-61 0 -84 13.5t-23 49.5z" />
<glyph unicode="/" horiz-adv-x="960" d="M27 -154l913 1590l174 -78l-913 -1589z" />
<glyph unicode="0" d="M186 338q0 112 32 297.5t65 320.5q28 108 65.5 185.5t100.5 143.5t161.5 100t231.5 34q116 0 195.5 -25.5t123 -75.5t62 -112t18.5 -145q0 -126 -32 -310t-72 -337q-28 -99 -68 -173.5t-103.5 -135.5t-158.5 -93t-219 -32q-93 0 -163.5 17.5t-115.5 48t-73 76.5t-39 98 t-11 118zM420 358q0 -95 45 -138.5t156 -43.5q71 0 120 16.5t82.5 54t54 88.5t37.5 130q93 386 93 573q0 97 -45.5 141t-157.5 44q-138 0 -199.5 -67.5t-95.5 -229.5q-6 -29 -23 -114.5t-25.5 -130t-20 -112.5t-16.5 -119t-5 -92z" />
<glyph unicode="1" d="M295 0l33 195h233l170 956l-260 -123l-18 199l360 174h193l-211 -1206h225l-33 -195h-692z" />
<glyph unicode="2" d="M174 0l31 184q338 303 489 459q139 145 204 252.5t65 204.5q0 64 -44.5 94.5t-142.5 30.5q-166 0 -375 -84l11 198q201 84 417 84q198 0 287.5 -67t89.5 -197q0 -82 -19.5 -154t-64 -145.5t-102 -142.5t-148.5 -162q-103 -110 -372 -358h547l-35 -197h-838z" />
<glyph unicode="3" d="M162 41l57 197q179 -68 344 -68q175 0 244 84q55 68 55 223q0 72 -46.5 101.5t-137.5 29.5h-264l32 195h183q125 0 186 26.5t88 98.5q33 87 33 180q0 64 -44 92.5t-142 28.5q-140 0 -344 -70l12 199q211 63 373 63q385 0 385 -258q0 -74 -18 -159.5t-56 -147.5 q-56 -89 -141 -127q73 -25 107 -76t34 -135q0 -100 -27.5 -197.5t-81.5 -164.5q-142 -179 -458 -179q-202 0 -373 64z" />
<glyph unicode="4" d="M125 342l35 195l770 864h250l-152 -864h180l-34 -195h-181l-59 -342h-232l60 342h-637zM408 537h389l114 557z" />
<glyph unicode="5" d="M168 39l59 203q171 -66 336 -66q108 0 166 26t88 95q45 98 45 219q0 73 -48 101t-171 28q-111 0 -237 -16h-89l164 772h729l-34 -197h-523l-75 -370q122 8 157 8q198 0 282.5 -64t84.5 -203q0 -84 -21 -186.5t-61 -181.5q-63 -116 -179 -173t-306 -57q-207 0 -367 62z " />
<glyph unicode="6" d="M209 326q0 154 54 427t132 404q75 132 200.5 198t319.5 66q142 0 310 -41l-54 -198q-132 37 -268 37q-131 0 -205.5 -35.5t-115.5 -110.5q-22 -37 -37.5 -93.5t-38.5 -178.5q172 51 299 51q173 0 252.5 -67.5t79.5 -213.5q0 -205 -88 -366q-124 -228 -457 -228 q-110 0 -185.5 23.5t-118.5 71t-61 108.5t-18 146zM434 338q0 -86 43 -126t150 -40q99 0 153.5 30t83.5 99q47 96 47 223q0 71 -36 100t-123 29q-140 0 -281 -49q-37 -217 -37 -266z" />
<glyph unicode="7" d="M258 0l739 1204h-604l35 197h858l-29 -162l-757 -1239h-242z" />
<glyph unicode="8" d="M168 274q0 86 24.5 178.5t75.5 153.5q63 77 183 127q-67 42 -97 95.5t-30 125.5q0 70 23 154.5t63 142.5q123 170 430 170q202 0 293.5 -69t91.5 -213q0 -65 -23 -145t-65 -138q-53 -70 -148 -123q83 -42 120.5 -100.5t37.5 -149.5q0 -74 -23 -161.5t-63 -149.5 q-125 -195 -475 -195q-227 0 -322.5 69.5t-95.5 227.5zM408 309q0 -81 47.5 -110t162.5 -29q100 0 161 25.5t91 83.5q19 35 30 87t11 95q0 72 -47 108.5t-164 61.5q-93 -17 -150 -43.5t-87 -67.5q-27 -34 -41 -93.5t-14 -117.5zM553 963q0 -67 41 -104.5t139 -57.5 q97 20 148 51.5t77 87.5q35 68 35 166q0 63 -42 93t-144 30q-152 0 -209 -88q-45 -70 -45 -178z" />
<glyph unicode="9" d="M201 18l53 199q134 -37 270 -37q130 0 205.5 35.5t116.5 110.5q39 68 74 272q-169 -51 -297 -51q-174 0 -254 67t-80 213q0 206 88 367q127 227 457 227q110 0 186 -23.5t119 -70.5t61.5 -108.5t18.5 -145.5q0 -151 -55 -425t-132 -406t-202.5 -198.5t-317.5 -66.5 q-143 0 -311 41zM516 874q0 -71 36.5 -100t123.5 -29q136 0 280 50q35 205 35 266q0 87 -42 126.5t-150 39.5q-98 0 -152.5 -30t-85.5 -99q-45 -98 -45 -224z" />
<glyph unicode=":" horiz-adv-x="503" d="M141 49q0 60 21 135q14 47 42 65.5t95 18.5q61 0 84 -14t23 -51q0 -78 -25 -148q-14 -40 -41.5 -54.5t-91.5 -14.5q-61 0 -84 13.5t-23 49.5zM252 686q0 63 20 135q14 47 42.5 65.5t95.5 18.5q61 0 83.5 -14t22.5 -51q0 -80 -24 -148q-14 -40 -42 -54.5t-92 -14.5 q-61 0 -83.5 13.5t-22.5 49.5z" />
<glyph unicode=";" horiz-adv-x="503" d="M84 -203q0 11 20 51l60 111q12 24 12 31q0 8 -12 20q-21 21 -21 47q0 64 21 129q15 44 45 62t90 18q57 0 82 -13.5t25 -49.5q0 -27 -7 -62l-10 -69q-7 -48 -41 -101l-123 -207q-13 -18 -28 -18q-21 0 -62 21q-51 24 -51 30zM252 686q0 63 20 135q14 47 42.5 65.5 t95.5 18.5q61 0 83.5 -14t22.5 -51q0 -80 -24 -148q-14 -40 -42 -54.5t-92 -14.5q-61 0 -83.5 13.5t-22.5 49.5z" />
<glyph unicode="&#x3c;" horiz-adv-x="1024" d="M201 496l30 166l785 385l57 -162l-653 -314l538 -311l-106 -147z" />
<glyph unicode="=" horiz-adv-x="1024" d="M168 309l31 168h790l-28 -168h-793zM231 676l33 170h791l-31 -170h-793z" />
<glyph unicode="&#x3e;" horiz-adv-x="1024" d="M154 274l649 314l-535 311l105 148l651 -385l-31 -166l-784 -383z" />
<glyph unicode="?" horiz-adv-x="958" d="M287 49q0 52 22 135q11 48 39 66t96 18q61 0 84 -14t23 -51q0 -78 -25 -148q-14 -40 -41.5 -54.5t-91.5 -14.5q-61 0 -83.5 13.5t-22.5 49.5zM317 1182l15 200q204 54 356 54q195 0 283 -62t88 -196q0 -180 -84 -308q-16 -24 -35 -45t-43.5 -42.5t-41.5 -35.5t-51 -40 t-50 -39q-65 -54 -111 -109t-94 -145l-176 61q40 101 89.5 170t125.5 129q13 10 48 35.5t52 39t40.5 37.5t39.5 48q49 71 49 184q0 62 -40 90.5t-140 28.5q-134 0 -320 -55z" />
<glyph unicode="@" horiz-adv-x="1802" d="M209 440q0 184 57 374t172 327q239 282 711 282q672 0 672 -585q0 -102 -12.5 -192t-46 -177.5t-84.5 -150.5t-134 -101.5t-190 -38.5q-179 0 -230 115q-56 -50 -126 -76.5t-138 -26.5q-120 0 -182 58t-62 162q0 99 31.5 217.5t87.5 206.5q112 182 350 182q127 0 334 -39 l-106 -510q-6 -36 -6 -63t21.5 -42.5t68.5 -15.5q56 0 98.5 36.5t65.5 88.5t37 121t18 120.5t4 100.5q0 104 -25 181.5t-81.5 136.5t-153.5 89.5t-234 30.5q-386 0 -555 -235q-79 -108 -119 -263t-40 -307q0 -257 150.5 -373t457.5 -116q158 0 354 33l2 -164 q-171 -41 -391 -41q-375 0 -575.5 161.5t-200.5 493.5zM827 465q0 -55 22.5 -80t78.5 -25q80 0 168 58l88 416q-58 18 -127 18q-110 0 -160 -92q-31 -54 -50.5 -137t-19.5 -158z" />
<glyph unicode="A" horiz-adv-x="1269" d="M25 0l716 1401h279l223 -1401h-252l-49 350h-504l-170 -350h-243zM530 543h388l-84 622z" />
<glyph unicode="B" horiz-adv-x="1171" d="M147 0l246 1401h529q92 0 156 -18.5t98.5 -53t49.5 -77t15 -97.5q0 -154 -57 -268q-56 -108 -168 -154q153 -43 153 -235q0 -174 -77 -308q-109 -190 -355 -190h-590zM418 195h293q73 0 117 25t69 91q35 86 35 174q0 61 -38 95t-132 34h-268zM526 805h238 q84 0 130.5 24.5t72.5 94.5q32 75 32 163q0 60 -32.5 88.5t-114.5 28.5h-256z" />
<glyph unicode="C" horiz-adv-x="1097" d="M195 334q0 115 42.5 364t92.5 379q69 174 200.5 260t366.5 86q207 0 363 -43l-60 -211q-162 48 -330 48q-139 0 -209 -45.5t-110 -163.5q-30 -82 -71.5 -326t-41.5 -303q0 -109 56 -152t202 -43q173 0 340 45l-14 -209q-168 -43 -365 -43q-108 0 -188 16t-132.5 45 t-84 74.5t-44.5 98.5t-13 123z" />
<glyph unicode="D" horiz-adv-x="1249" d="M147 0l246 1401h471q126 0 212.5 -24t134 -72t67.5 -109.5t20 -146.5q0 -116 -37.5 -339.5t-80.5 -357.5q-40 -120 -104 -194.5t-178 -116t-284 -41.5h-467zM420 205h225q141 0 208.5 49t102.5 168q31 104 66 310t35 280q0 101 -52 142.5t-184 41.5h-227z" />
<glyph unicode="E" horiz-adv-x="1089" d="M145 0l246 1401h838l-37 -207h-600l-66 -373h537l-37 -205h-534l-72 -411h600l-35 -205h-840z" />
<glyph unicode="F" horiz-adv-x="1026" d="M147 0l246 1401h817l-36 -205h-580l-68 -389h527l-37 -205h-527l-104 -602h-238z" />
<glyph unicode="G" horiz-adv-x="1208" d="M197 354q0 95 34.5 305t75.5 342q32 104 75.5 178t112 131t169 85t235.5 28q210 0 401 -45l-55 -211q-195 50 -366 50q-108 0 -174.5 -26.5t-103.5 -79.5t-64 -148q-31 -102 -65 -305t-34 -275q0 -106 53 -153.5t187 -47.5q70 0 215 17l51 307h-137l37 205h366l-123 -688 q-230 -46 -450 -46q-127 0 -214.5 26.5t-136 78.5t-69 117.5t-20.5 154.5z" />
<glyph unicode="H" horiz-adv-x="1302" d="M147 0l246 1401h238l-103 -582h533l102 582h238l-246 -1401h-237l106 614h-532l-107 -614h-238z" />
<glyph unicode="I" horiz-adv-x="546" d="M154 0l245 1401h238l-246 -1401h-237z" />
<glyph unicode="J" horiz-adv-x="608" d="M43 172q57 16 90.5 26.5t63.5 25t44 26.5t27 34t18.5 44.5t12.5 60.5l178 1012h238l-164 -934q-14 -82 -31 -142t-37.5 -105.5t-48 -77.5t-59.5 -55.5t-77 -41.5t-94.5 -34t-116.5 -35q-13 -3 -19 -5z" />
<glyph unicode="K" horiz-adv-x="1253" d="M145 0l246 1401h238l-119 -684l610 684h297l-647 -701l436 -700h-282l-420 688l-121 -688h-238z" />
<glyph unicode="L" horiz-adv-x="997" d="M145 0l246 1401h238l-209 -1194h555l-35 -207h-795z" />
<glyph unicode="M" horiz-adv-x="1562" d="M131 0l299 1401h246l190 -905l512 905h246l-194 -1401h-240l131 928l-401 -715h-207l-150 715l-194 -928h-238z" />
<glyph unicode="N" horiz-adv-x="1349" d="M145 0l246 1401h268l373 -1024l182 1024h232l-246 -1401h-268l-379 1001l-176 -1001h-232z" />
<glyph unicode="O" horiz-adv-x="1306" d="M201 365q0 97 34.5 312t77.5 345q32 96 78 167t115 125t168.5 81.5t228.5 27.5t218 -27t139 -80t71 -121t21 -161q0 -111 -34 -319t-81 -342q-26 -75 -59 -134t-82.5 -109t-112 -83t-147 -51.5t-187.5 -18.5t-181 18.5t-128.5 51t-81.5 82t-44 106.5t-13 130zM442 391 q0 -109 54 -159t190 -50q150 0 222.5 61t109.5 197q32 121 63 304t31 266q0 108 -55 158.5t-191 50.5q-148 0 -219 -58.5t-108 -191.5q-31 -106 -64 -304t-33 -274z" />
<glyph unicode="P" horiz-adv-x="1163" d="M147 0l246 1401h541q98 0 165.5 -17.5t105.5 -52.5t54.5 -81.5t16.5 -110.5q0 -87 -25 -223t-73 -226q-54 -104 -150 -154.5t-254 -50.5h-305l-84 -485h-238zM506 690h266q91 0 138 27t71 88q22 55 35.5 132t13.5 132q0 73 -39 100t-139 27h-258z" />
<glyph unicode="Q" horiz-adv-x="1306" d="M201 365q0 97 34.5 312t77.5 345q32 96 78 167t115 125t168.5 81.5t228.5 27.5t218 -27t139 -80t71 -121t21 -161q0 -111 -34 -319t-81 -342q-56 -162 -159 -258.5t-279 -124.5q2 -56 20 -78.5t72 -22.5q43 0 129 19l4 -182q-122 -27 -203 -27q-120 0 -170.5 40.5 t-50.5 149.5q0 39 6 91q-115 4 -195.5 33t-125.5 81t-64.5 117.5t-19.5 153.5zM442 391q0 -109 54 -159t190 -50q150 0 222.5 61t109.5 197q32 121 63 304t31 266q0 108 -55 158.5t-191 50.5q-148 0 -219 -58.5t-108 -191.5q-31 -106 -64 -304t-33 -274z" />
<glyph unicode="R" horiz-adv-x="1241" d="M147 0l246 1401h522q197 0 277 -66.5t80 -204.5q0 -93 -24 -213.5t-72 -207.5q-71 -133 -215 -172l235 -537h-270l-230 514h-221l-90 -514h-238zM510 719h276q79 0 123 22t68 78q23 51 36 126t13 128q0 70 -35 96.5t-117 26.5h-280z" />
<glyph unicode="S" horiz-adv-x="1093" d="M109 35l63 211q180 -64 373 -64q107 0 168 24.5t90 78.5q33 59 33 155q0 28 -5.5 48.5t-21.5 37.5t-32 28.5t-50.5 24t-63 20.5t-81.5 22q-84 22 -135.5 42.5t-95.5 52.5t-63.5 78.5t-19.5 112.5q0 206 105 348q126 168 438 168q210 0 395 -41l-59 -219q-188 56 -359 56 q-94 0 -148 -22t-81 -67q-39 -56 -39 -147q0 -20 3 -36t12.5 -29.5t17 -23.5t28 -20.5t34 -17t45 -16.5t50.5 -15.5t62 -17.5q173 -47 244 -107t71 -184q0 -88 -22.5 -182t-71.5 -166q-63 -98 -179 -145.5t-296 -47.5q-227 0 -409 60z" />
<glyph unicode="T" horiz-adv-x="1077" d="M248 1194l37 207h997l-37 -207h-381l-209 -1194h-237l209 1194h-379z" />
<glyph unicode="U" horiz-adv-x="1298" d="M207 344q0 62 12 129l162 928h237l-163 -930q-11 -64 -11 -92q0 -97 57 -145t181 -48q147 0 222 69t102 216l163 930h238l-164 -928q-15 -84 -42.5 -155.5t-76 -135.5t-113.5 -108.5t-158.5 -70.5t-207.5 -26q-438 0 -438 367z" />
<glyph unicode="V" horiz-adv-x="1245" d="M254 1401h248l155 -1159l572 1159h252l-719 -1401h-293z" />
<glyph unicode="W" horiz-adv-x="1792" d="M279 1401h237l45 -1086l449 1086h260l63 -1088l426 1088h246l-575 -1401h-283l-66 1057l-438 -1057h-281z" />
<glyph unicode="X" horiz-adv-x="1206" d="M33 0l555 711l-291 690h262l203 -481l371 481h260l-529 -684l307 -717h-266l-217 508l-393 -508h-262z" />
<glyph unicode="Y" horiz-adv-x="1142" d="M248 1401h256l196 -658l428 658h254l-608 -914l-86 -487h-235l84 487z" />
<glyph unicode="Z" horiz-adv-x="1161" d="M100 0l31 186l844 1014h-647l34 201h932l-32 -189l-846 -1011h671l-34 -201h-953z" />
<glyph unicode="[" horiz-adv-x="620" d="M96 -348l348 1984h449l-31 -180h-229l-285 -1626h227l-30 -178h-449z" />
<glyph unicode="\" horiz-adv-x="960" d="M315 1364l203 72l352 -1596l-200 -71z" />
<glyph unicode="]" horiz-adv-x="620" d="M-47 -348l33 178h225l287 1626h-228l31 180h449l-351 -1984h-446z" />
<glyph unicode="^" horiz-adv-x="1024" d="M246 885l436 549h158l245 -549l-184 -58l-174 412l-319 -412z" />
<glyph unicode="_" horiz-adv-x="1024" d="M-55 -287l26 148h1035l-27 -148h-1034z" />
<glyph unicode="`" horiz-adv-x="681" d="M313 1290l43 189l371 -213l-63 -148z" />
<glyph unicode="a" horiz-adv-x="1083" d="M158 246q0 109 23 242.5t67 240.5q60 156 171.5 226.5t317.5 70.5q175 0 383 -29l-176 -997h-201l-6 68q-61 -38 -144 -64.5t-157 -26.5q-152 0 -215 66t-63 203zM395 299q0 -71 29 -102t104 -31q100 0 228 74l104 587q-83 13 -160 13q-109 0 -163 -43.5t-82 -137.5 q-60 -202 -60 -360z" />
<glyph unicode="b" horiz-adv-x="1079" d="M137 8l250 1415l238 31l-84 -483q148 55 293 55t205.5 -64.5t60.5 -199.5q0 -101 -24.5 -243t-67.5 -245q-59 -154 -168 -225.5t-305 -71.5q-195 0 -398 31zM399 176q73 -12 158 -12q101 0 154.5 44.5t83.5 131.5q27 70 47 182.5t20 184.5q0 69 -29 99t-100 30 q-91 0 -227 -52z" />
<glyph unicode="c" horiz-adv-x="874" d="M156 285q0 97 22 219t62 227q38 101 94.5 164.5t149 98t225.5 34.5q132 0 264 -24l-53 -197q-127 29 -238 29q-92 0 -141.5 -32t-81.5 -126q-29 -76 -48.5 -183t-19.5 -180q0 -80 39.5 -112.5t138.5 -32.5q87 0 242 31l-12 -195q-152 -29 -279 -29q-201 0 -282.5 75.5 t-81.5 232.5z" />
<glyph unicode="d" horiz-adv-x="1093" d="M156 250q0 100 23.5 235.5t64.5 247.5q51 153 145.5 223t272.5 70q125 0 235 -29l76 426l237 31l-256 -1454h-196l-4 82q-63 -45 -146.5 -73.5t-167.5 -28.5q-156 0 -220 62t-64 208zM393 299q0 -71 28 -104t97 -33q62 0 130 29t120 71l94 545q-121 31 -215 31 q-79 0 -120.5 -38.5t-65.5 -121.5q-28 -79 -48 -193.5t-20 -185.5z" />
<glyph unicode="e" horiz-adv-x="983" d="M160 285q0 102 21.5 224.5t62.5 221.5q56 143 163.5 219t294.5 76q179 0 255.5 -71t76.5 -207q0 -160 -102.5 -256.5t-319.5 -96.5q-102 0 -213 17q-12 -79 -12 -111q0 -81 43.5 -110t144.5 -29q168 0 347 51l-17 -184q-195 -52 -391 -52q-192 0 -273 75t-81 233z M430 582q99 -17 176 -17q207 0 207 160q0 60 -34.5 89.5t-110.5 29.5q-89 0 -138.5 -39t-76.5 -125q-13 -42 -23 -98z" />
<glyph unicode="f" horiz-adv-x="743" d="M121 -422l217 1233h-150l35 190h148l28 156q25 149 116.5 222t270.5 73q104 0 199 -18l-45 -187q-93 19 -164 19t-104 -30.5t-45 -100.5l-25 -134h258l-53 -190h-240l-209 -1202z" />
<glyph unicode="g" horiz-adv-x="1083" d="M53 -371l49 187q174 -52 353 -52q120 0 173.5 32t65.5 102l25 137q-142 -49 -287 -49q-152 0 -214 63t-62 195q0 188 67 422q57 191 173.5 275.5t338.5 84.5q159 0 385 -31l-194 -1099q-28 -162 -143 -239t-351 -77q-221 0 -379 49zM395 307q0 -72 29.5 -102.5 t101.5 -30.5q109 0 226 49l106 602q-92 15 -158 15q-84 0 -133 -24t-80 -79q-37 -65 -64.5 -202.5t-27.5 -227.5z" />
<glyph unicode="h" horiz-adv-x="1091" d="M137 0l250 1423l238 31l-97 -539q216 111 375 111q199 0 199 -180q0 -40 -6 -84l-135 -762h-232l125 715q2 12 2 33q0 67 -76 67q-50 0 -131 -27t-153 -65l-127 -723h-232z" />
<glyph unicode="i" horiz-adv-x="514" d="M141 0l176 1006h232l-176 -1006h-232zM352 1202q0 68 25 148q14 38 42 52.5t89 14.5t83.5 -13.5t22.5 -49.5q0 -90 -26 -152q-13 -37 -40 -50t-89 -13q-61 0 -84 13.5t-23 49.5z" />
<glyph unicode="j" horiz-adv-x="514" d="M-100 -238q138 43 178 77t55 122l184 1045h230l-187 -1065q-13 -73 -36 -123.5t-48.5 -83t-84 -60.5t-106 -44t-151.5 -46zM352 1202q0 68 25 148q14 38 42 52.5t89 14.5t83.5 -13.5t22.5 -49.5q0 -90 -26 -152q-13 -37 -40 -50t-89 -13q-61 0 -84 13.5t-23 49.5z" />
<glyph unicode="k" horiz-adv-x="1058" d="M137 0l250 1423l238 31l-160 -903l444 455h285l-475 -471l315 -535h-274l-297 532l-94 -532h-232z" />
<glyph unicode="l" horiz-adv-x="579" d="M158 111q0 37 20 151l203 1161l240 31l-213 -1202q-1 -5 -3 -13.5t-3 -16.5t-1 -17q0 -39 48 -39q43 0 104 18l14 -172q-124 -32 -243 -32q-91 0 -128.5 32t-37.5 99z" />
<glyph unicode="m" horiz-adv-x="1634" d="M135 0l176 1006h195l10 -101q220 119 379 119q148 0 174 -125q236 125 395 125q178 0 178 -186q0 -44 -8 -90l-131 -748h-231l125 715q2 12 2 35q0 65 -68 65q-45 0 -121.5 -28t-148.5 -70l-125 -717h-231l124 715q5 30 5 39q0 61 -72 61q-43 0 -120 -28.5t-148 -69.5 l-125 -717h-234z" />
<glyph unicode="n" horiz-adv-x="1091" d="M137 0l176 1006h195l8 -93q93 48 197 80.5t188 32.5q201 0 201 -182q0 -38 -6 -84l-135 -760h-232l125 713q2 10 2 32q0 70 -78 70q-49 0 -129.5 -27.5t-152.5 -64.5l-127 -723h-232z" />
<glyph unicode="o" horiz-adv-x="1077" d="M162 305q0 103 22.5 218.5t65.5 211.5q39 95 96 157.5t150.5 99t222.5 36.5q201 0 284.5 -83.5t83.5 -242.5q0 -96 -22.5 -213.5t-63.5 -214.5q-39 -97 -95.5 -160.5t-150 -100t-223.5 -36.5q-104 0 -177 22t-114.5 66t-60 102.5t-18.5 137.5zM395 322q0 -81 38.5 -117.5 t133.5 -36.5q100 0 149 38.5t77 135.5q26 67 43.5 169.5t17.5 174.5q0 80 -37.5 115t-132.5 35q-94 0 -143.5 -34.5t-77.5 -117.5q-30 -77 -49 -182t-19 -180z" />
<glyph unicode="p" horiz-adv-x="1093" d="M59 -422l252 1428h195l4 -84q63 44 145.5 73t163.5 29q157 0 222 -71.5t65 -207.5q0 -186 -66 -413q-24 -84 -55 -144.5t-80.5 -110.5t-122.5 -75t-170 -25q-104 0 -243 27l-70 -395zM401 195q121 -31 209 -31q79 0 125.5 45t71.5 129q26 84 43.5 188.5t17.5 173.5 q0 70 -29.5 104t-97.5 34q-60 0 -128 -29t-115 -68z" />
<glyph unicode="q" horiz-adv-x="1083" d="M158 246q0 110 23 243t67 240q60 156 171.5 226.5t317.5 70.5q175 0 383 -29l-243 -1388l-238 -31l78 449q-141 -50 -281 -50q-152 0 -215 66t-63 203zM395 299q0 -70 31 -100.5t106 -30.5q92 0 220 49l108 610q-83 13 -160 13q-109 0 -163 -43.5t-82 -139.5 q-60 -202 -60 -358z" />
<glyph unicode="r" horiz-adv-x="710" d="M139 0l174 1006h203l2 -115q144 104 338 137l-39 -219q-193 -32 -325 -123l-121 -686h-232z" />
<glyph unicode="s" horiz-adv-x="905" d="M96 25l64 182q138 -43 307 -43q70 0 106.5 10t55.5 41q26 42 26 109q0 32 -29.5 48.5t-127.5 41.5q-162 41 -220.5 87.5t-58.5 129.5q0 55 15 124t45 119q46 78 137 115t239 37q169 0 310 -31l-56 -182q-165 33 -284 33q-71 0 -108 -12t-52 -41q-16 -37 -16 -86 q0 -32 24 -47.5t102 -36.5q183 -45 246.5 -92t63.5 -130q0 -65 -19.5 -150t-60.5 -140q-104 -134 -365 -134q-83 0 -182 14t-162 34z" />
<glyph unicode="t" horiz-adv-x="757" d="M182 817l33 189h147l46 254l237 30l-51 -284h262l-51 -189h-246l-92 -536q-6 -34 -6 -54q0 -32 16.5 -44.5t57.5 -12.5q84 0 174 33l-19 -191q-128 -32 -252 -32q-117 0 -168 42.5t-51 133.5q0 52 10 96l99 565h-146z" />
<glyph unicode="u" horiz-adv-x="1091" d="M164 164q0 36 6 80l135 762h232l-127 -715q-2 -12 -2 -33q0 -70 77 -70q48 0 128 27.5t157 65.5l127 725h231l-176 -1006h-194l-8 88q-90 -47 -193 -79t-188 -32q-205 0 -205 187z" />
<glyph unicode="v" horiz-adv-x="991" d="M186 1006h244l102 -760l381 760h242l-534 -1006h-265z" />
<glyph unicode="w" horiz-adv-x="1439" d="M205 1006h223l33 -723l291 555h229l92 -555l281 723h229l-418 -1006h-243l-97 608l-311 -608h-242z" />
<glyph unicode="x" horiz-adv-x="993" d="M25 0l432 508l-244 498h254l147 -324l263 324h251l-421 -492l258 -514h-254l-160 334l-272 -334h-254z" />
<glyph unicode="y" horiz-adv-x="987" d="M166 -406l223 400l-203 1012h244l119 -719l360 719h246l-760 -1412h-229z" />
<glyph unicode="z" horiz-adv-x="931" d="M90 0l31 176l581 645h-450l31 185h723l-31 -181l-582 -641h486l-31 -184h-758z" />
<glyph unicode="{" horiz-adv-x="665" d="M139 494l31 174q45 4 69 10.5t47 25t35.5 53t22.5 93.5l68 381q15 84 46.5 145.5t72 99t99.5 60t119 31t140 10.5l-31 -178q-101 -5 -157.5 -42t-73.5 -136l-64 -353q-9 -54 -22.5 -96.5t-35 -83t-55 -68t-77.5 -38.5q102 -32 102 -168q0 -60 -12 -121l-64 -352 q-4 -36 -4 -50q0 -49 24.5 -77.5t59.5 -38t90 -11.5l-30 -178q-69 1 -121 7.5t-100 23t-78 43.5t-48 70.5t-18 103.5q0 52 10 96l68 383q8 66 8 84q0 56 -27 74t-94 23z" />
<glyph unicode="|" horiz-adv-x="505" d="M90 -422l336 1901h172l-336 -1901h-172z" />
<glyph unicode="}" horiz-adv-x="665" d="M-18 -414l28 178q102 5 158.5 42t73.5 135l63 352q44 251 191 289q-103 31 -103 168q0 55 13 118l63 353q4 40 4 51q0 69 -44.5 95.5t-131.5 31.5l33 178q69 -2 120 -8.5t99.5 -23.5t78.5 -43.5t48 -70t18 -102.5q0 -52 -10 -98l-68 -381q-8 -47 -8 -84q0 -57 26.5 -74 t96.5 -24l-31 -174q-47 -3 -71.5 -9.5t-47 -25t-35 -52.5t-22.5 -94l-67 -383q-16 -84 -47 -145t-71.5 -98.5t-99 -59.5t-118 -30.5t-139.5 -10.5z" />
<glyph unicode="~" horiz-adv-x="1024" d="M174 588q61 77 141 123.5t164 46.5q50 0 98.5 -19t79.5 -41.5t71 -41.5t77 -19q119 0 221 123l31 -158q-133 -162 -295 -162q-41 0 -79 12.5t-67.5 30.5t-57 36.5t-57.5 31t-59 12.5q-67 0 -121.5 -33.5t-115.5 -99.5z" />
<glyph unicode="&#xa1;" horiz-adv-x="542" d="M82 -399l127 680l84 352h176l-39 -352l-113 -680h-235zM295 811q0 87 24 147q12 40 41 55t93 15q61 0 83.5 -13.5t22.5 -49.5q0 -53 -22 -136q-11 -48 -39.5 -66t-96.5 -18q-61 0 -83.5 14.5t-22.5 51.5z" />
<glyph unicode="&#xa2;" horiz-adv-x="897" d="M190 483q0 97 22 219.5t62 227.5q52 138 144 209.5t252 83.5l35 196h159l-35 -194q72 -5 179 -23l-54 -196q-63 13 -157 24l-117 -657q62 5 166 26l-12 -194q-84 -18 -187 -27l-37 -198h-159l36 198q-162 12 -229.5 87t-67.5 218zM426 514q0 -63 21.5 -95t74.5 -44 l115 653q-52 -11 -85.5 -45.5t-57.5 -105.5q-29 -76 -48.5 -183t-19.5 -180z" />
<glyph unicode="&#xa3;" d="M156 -12l22 178l115 41q141 167 141 366q0 5 -1 21.5t-1 21.5h-184l33 179h137q-17 73 -17 131q0 223 125.5 350t388.5 127q182 0 353 -62l-58 -194q-152 61 -325 61q-139 0 -196.5 -65.5t-57.5 -210.5q0 -60 18 -137h391l-61 -179h-324v-22q0 -166 -153 -391h588 l-27 -205h-688q-102 0 -219 -10z" />
<glyph unicode="&#xa4;" d="M223 250l121 133q-76 118 -76 264q0 143 78 264l-123 133l105 117l127 -137q109 80 245 80q135 0 242 -80l125 135l109 -110l-123 -138q77 -118 77 -264q0 -147 -79 -262l125 -135l-109 -113l-127 133q-116 -80 -240 -80q-133 0 -243 80l-125 -133zM446 647 q0 -118 73.5 -199t178.5 -81q106 0 180 81t74 199t-74.5 199.5t-179.5 81.5t-178.5 -81.5t-73.5 -199.5z" />
<glyph unicode="&#xa5;" d="M197 324l28 159h324l6 39l-39 127h-262l29 164h182l-189 588h252l193 -653l428 653h246l-396 -588h183l-29 -164h-262l-86 -127l-6 -39h325l-28 -159h-334l-55 -324h-232l55 324h-333z" />
<glyph unicode="&#xa6;" horiz-adv-x="505" d="M92 -412l139 785h172l-139 -785h-172zM287 696l139 785h172l-139 -785h-172z" />
<glyph unicode="&#xa7;" horiz-adv-x="1112" d="M86 -338l55 201q170 -80 344 -80q271 0 271 199q0 22 -7.5 42t-26.5 38t-36 31.5t-52.5 31.5t-58 28t-69.5 31q-53 24 -88.5 42t-78.5 47t-68.5 57.5t-43.5 69.5t-18 87q0 96 55 177t150 143q-88 78 -88 188q0 88 31 163.5t92 135t161.5 93.5t229.5 34q179 0 344 -65 l-58 -199q-155 70 -321 70q-115 0 -185.5 -47t-70.5 -138q0 -26 13 -49t32 -40.5t55 -38t65.5 -34.5t80.5 -36q65 -27 108 -50.5t88.5 -58.5t68.5 -81t23 -103q0 -169 -211 -315q107 -83 107 -201q0 -81 -29 -157t-88 -142.5t-164 -107t-241 -40.5q-199 0 -371 74zM424 541 q0 -27 14 -52t33.5 -43t58 -39.5t67.5 -34.5t83 -36l41 -19q145 95 145 181q0 18 -4.5 34.5t-16 31.5t-22 27t-31.5 25t-36 22t-43 22t-44.5 20.5t-50 21.5t-49.5 21q-145 -94 -145 -182z" />
<glyph unicode="&#xa8;" horiz-adv-x="681" d="M244 1219q0 40 20 122q11 40 37 55t88 15q58 0 79 -12.5t21 -46.5q0 -58 -24 -135q-11 -34 -37 -47t-84 -13t-79 13t-21 49zM643 1219q0 36 21 122q12 41 37 55.5t87 14.5q58 0 79.5 -12.5t21.5 -46.5q0 -55 -25 -135q-12 -34 -37.5 -47t-83.5 -13t-79 13t-21 49z" />
<glyph unicode="&#xa9;" horiz-adv-x="1640" d="M205 535q0 182 58.5 343.5t166 282.5t269.5 191.5t358 70.5q308 0 464 -150t156 -413q0 -250 -105 -450.5t-299.5 -316.5t-443.5 -116q-309 0 -466.5 149t-157.5 409zM375 551q0 -194 113.5 -304t353.5 -110q162 0 290 55t209.5 152t124.5 225.5t43 278.5 q0 196 -113.5 307t-353.5 111q-210 0 -362.5 -94.5t-228.5 -254.5t-76 -366zM606 526q0 61 19.5 173t50.5 188q42 109 120.5 158t225.5 49q111 0 221 -27l-41 -147q-107 28 -201 28q-80 0 -116.5 -25t-57.5 -98q-19 -59 -33 -146.5t-14 -131.5q0 -56 30 -76t110 -20 q87 0 206 28l-10 -145q-106 -27 -223 -27q-159 0 -223 50.5t-64 168.5z" />
<glyph unicode="&#xaa;" horiz-adv-x="776" d="M264 952q0 69 15.5 159t46.5 157q40 93 113.5 133.5t207.5 40.5q121 0 260 -19l-110 -630h-146l-6 36q-38 -22 -91 -36.5t-101 -14.5q-103 0 -146 43t-43 131zM434 991q0 -43 19.5 -61.5t68.5 -18.5q44 0 135 35l64 359q-41 8 -98 8q-66 0 -100 -24.5t-52 -78.5 q-16 -49 -26.5 -113t-10.5 -106z" />
<glyph unicode="&#xab;" horiz-adv-x="1091" d="M160 432l22 135l381 371l121 -139l-315 -312l198 -297l-157 -129zM643 432l23 135l381 371l120 -139l-315 -312l199 -297l-158 -129z" />
<glyph unicode="&#xac;" horiz-adv-x="1042" d="M221 612l31 174h790l-90 -522h-184l61 348h-608z" />
<glyph unicode="&#xad;" horiz-adv-x="753" d="M174 453l35 200h561l-35 -200h-561z" />
<glyph unicode="&#xae;" horiz-adv-x="1310" d="M242 754q0 142 44 267t125.5 219.5t207.5 149t280 54.5q243 0 361 -111.5t118 -314.5q0 -199 -78.5 -354.5t-227.5 -244.5t-347 -89q-244 0 -363.5 111.5t-119.5 312.5zM389 760q0 -141 81 -218t267 -77q129 0 226.5 42t156 117.5t87 172.5t28.5 215q0 297 -348 297 q-244 0 -371 -147.5t-127 -401.5zM547 598l102 586h258q142 0 142 -125q0 -90 -31 -150q-34 -66 -98 -88l104 -223h-145l-99 211h-69l-37 -211h-127zM729 913h107q54 0 69 45q13 37 13 74q0 25 -14.5 35t-51.5 10h-94z" />
<glyph unicode="&#xaf;" horiz-adv-x="681" d="M281 1184l26 151h537l-29 -151h-534z" />
<glyph unicode="&#xb0;" horiz-adv-x="704" d="M291 1114q0 114 90.5 202.5t208.5 88.5q100 0 161.5 -62.5t61.5 -158.5q0 -116 -89.5 -204.5t-205.5 -88.5q-103 0 -165 62t-62 161zM412 1120q0 -50 31.5 -82t84.5 -32q66 0 116 51t50 119q0 50 -31.5 82t-82.5 32q-68 0 -118 -50.5t-50 -119.5z" />
<glyph unicode="&#xb1;" horiz-adv-x="1024" d="M115 0l30 176h791l-29 -176h-792zM215 590l31 176h305l53 309h182l-55 -309h305l-28 -176h-308l-53 -309h-180l53 309h-305z" />
<glyph unicode="&#xb2;" horiz-adv-x="819" d="M201 489l24 144q255 216 328 285q83 81 126.5 143.5t43.5 126.5q0 72 -117 72q-109 0 -262 -56l8 154q140 57 297 57q266 0 266 -178q0 -98 -54.5 -189t-164.5 -196q-92 -92 -233 -211h354l-24 -152h-592z" />
<glyph unicode="&#xb3;" horiz-adv-x="819" d="M190 518l46 152q126 -45 239 -45q64 0 101 12.5t55 42.5q13 21 22 56t9 61q0 41 -30.5 58t-92.5 17h-183l27 152h135q72 0 110.5 15t55.5 51q21 44 21 108q0 35 -28 50.5t-91 15.5q-96 0 -240 -45l12 151q142 43 263 43q274 0 274 -176q0 -98 -45 -186q-30 -59 -92 -86 q92 -37 92 -140q0 -54 -17.5 -115t-50.5 -108q-92 -127 -329 -127q-139 0 -263 43z" />
<glyph unicode="&#xb4;" horiz-adv-x="681" d="M399 1266l445 213l-23 -189l-409 -172z" />
<glyph unicode="&#xb5;" horiz-adv-x="1091" d="M53 -422l252 1428h232l-127 -715q-2 -12 -2 -33q0 -70 77 -70q48 0 129.5 27.5t155.5 65.5l129 725h229l-176 -1006h-194l-8 88q-192 -100 -349 -108q-30 0 -45 6l-65 -377z" />
<glyph unicode="&#xb6;" horiz-adv-x="1202" d="M219 928q0 113 43 204.5t117 149.5t171 88.5t208 30.5h631l-43 -141h-127l-291 -1647l-166 -27l295 1674h-195l-291 -1647l-165 -27l178 1014q-164 0 -264.5 93.5t-100.5 234.5z" />
<glyph unicode="&#xb7;" horiz-adv-x="503" d="M219 502q0 60 21 135q14 47 42 65.5t95 18.5q61 0 83.5 -14.5t22.5 -51.5q0 -79 -24 -147q-14 -40 -41.5 -55t-91.5 -15q-61 0 -84 14t-23 50z" />
<glyph unicode="&#xb8;" horiz-adv-x="681" d="M94 -399l45 116q65 -16 146 -16q38 0 54 6t19 21l11 55q1 18 -12 23.5t-46 5.5q-20 0 -41 -7l-69 37l71 162h125l-39 -88q92 -2 137.5 -24t45.5 -74q0 -17 -2 -25l-15 -82q-13 -74 -70 -101.5t-173 -27.5q-92 0 -187 19z" />
<glyph unicode="&#xb9;" horiz-adv-x="819" d="M276 489l27 152h164l98 561l-174 -76l-16 156l258 119h149l-135 -760h160l-27 -152h-504z" />
<glyph unicode="&#xba;" horiz-adv-x="829" d="M301 993q0 58 14 133.5t41 133.5q38 90 113 137t199 47q135 0 192.5 -55.5t57.5 -159.5q0 -144 -54 -264q-41 -91 -114 -138t-199 -47q-134 0 -192 55t-58 158zM467 1004q0 -50 23.5 -69.5t84.5 -19.5q62 0 92.5 22.5t49.5 80.5q35 103 35 201q0 50 -24 70t-85 20 q-62 0 -91.5 -22t-47.5 -77q-37 -113 -37 -206z" />
<glyph unicode="&#xbb;" horiz-adv-x="1091" d="M117 201l317 311l-201 297l158 129l250 -371l-23 -135l-380 -371zM600 201l318 311l-201 297l157 129l250 -371l-22 -135l-381 -371z" />
<glyph unicode="&#xbc;" horiz-adv-x="1957" d="M276 489l27 152h164l98 561l-174 -76l-16 156l258 119h149l-135 -760h160l-27 -152h-504zM623 29q562 946 845 1417l156 -55q-454 -756 -848 -1416zM1206 201l27 151l520 559h199l-99 -557h123l-26 -153h-123l-35 -201h-184l34 201h-436zM1427 354h242l57 326z" />
<glyph unicode="&#xbd;" horiz-adv-x="1957" d="M276 489l27 152h164l98 561l-174 -76l-16 156l258 119h149l-135 -760h160l-27 -152h-504zM602 29q474 798 846 1417l156 -55q-454 -756 -848 -1416zM1249 0l25 143q255 216 328 285q83 81 126.5 143.5t43.5 126.5q0 72 -117 72q-111 0 -262 -55l8 153q143 58 297 58 q266 0 266 -178q0 -98 -55 -189.5t-164 -196.5q-80 -80 -234 -210h355l-25 -152h-592z" />
<glyph unicode="&#xbe;" horiz-adv-x="1957" d="M190 518l46 152q126 -45 239 -45q64 0 101 12.5t55 42.5q13 21 22 56t9 61q0 41 -30.5 58t-92.5 17h-183l27 152h135q72 0 110.5 15t55.5 51q21 44 21 108q0 35 -28 50.5t-91 15.5q-96 0 -240 -45l12 151q142 43 263 43q274 0 274 -176q0 -98 -45 -186q-30 -59 -92 -86 q92 -37 92 -140q0 -54 -17.5 -115t-50.5 -108q-92 -127 -329 -127q-139 0 -263 43zM623 29q562 946 845 1417l156 -55q-454 -756 -848 -1416zM1206 201l27 151l520 559h199l-99 -557h123l-26 -153h-123l-35 -201h-184l34 201h-436zM1427 354h242l57 326z" />
<glyph unicode="&#xbf;" horiz-adv-x="958" d="M76 -164q0 179 84 307q16 24 34.5 45t44 43t41.5 35.5t51 40.5t50 39q65 54 111 109t94 145l176 -61q-40 -101 -89.5 -170t-125.5 -129q-13 -10 -48 -35.5t-52 -39t-40.5 -37.5t-39.5 -48q-50 -73 -50 -184q0 -62 40.5 -90.5t140.5 -28.5q133 0 319 55l-14 -201 q-200 -53 -357 -53q-195 0 -282.5 62t-87.5 196zM584 811q0 80 24 147q14 40 41.5 55t91.5 15q61 0 84 -13.5t23 -49.5q0 -50 -23 -136q-11 -48 -39 -66t-96 -18q-61 0 -83.5 14.5t-22.5 51.5z" />
<glyph unicode="&#xc0;" horiz-adv-x="1269" d="M25 0l716 1401h279l223 -1401h-252l-49 350h-504l-170 -350h-243zM530 543h388l-84 622zM674 1655l43 188l370 -213l-63 -147z" />
<glyph unicode="&#xc1;" horiz-adv-x="1269" d="M25 0l716 1401h279l223 -1401h-252l-49 350h-504l-170 -350h-243zM530 543h388l-84 622zM752 1630l444 213l-22 -188l-410 -172z" />
<glyph unicode="&#xc2;" horiz-adv-x="1269" d="M25 0l716 1401h279l223 -1401h-252l-49 350h-504l-170 -350h-243zM530 543h388l-84 622zM596 1622l352 203l291 -205l-82 -135l-244 147l-297 -149z" />
<glyph unicode="&#xc3;" horiz-adv-x="1269" d="M25 0l716 1401h279l223 -1401h-252l-49 350h-504l-170 -350h-243zM530 543h388l-84 622zM616 1667q41 38 96.5 63t106.5 25q62 0 137 -33.5t105 -33.5q82 0 147 65l19 -135q-37 -43 -91.5 -67.5t-113.5 -24.5q-53 1 -124.5 34t-109.5 33q-77 0 -157 -65z" />
<glyph unicode="&#xc4;" horiz-adv-x="1269" d="M25 0l716 1401h279l223 -1401h-252l-49 350h-504l-170 -350h-243zM530 543h388l-84 622zM600 1583q0 37 21 123q11 40 36.5 55t87.5 15q58 0 79.5 -13t21.5 -47q0 -55 -25 -135q-10 -34 -36 -46.5t-85 -12.5q-58 0 -79 13t-21 48zM999 1583q0 37 21 123q12 41 37.5 55.5 t87.5 14.5q58 0 79 -13t21 -47q0 -58 -24 -135q-12 -34 -37.5 -46.5t-83.5 -12.5t-79.5 13t-21.5 48z" />
<glyph unicode="&#xc5;" horiz-adv-x="1269" d="M25 0l716 1401h279l223 -1401h-252l-49 350h-504l-170 -350h-243zM530 543h388l-84 622zM735 1614q0 93 62 153t155 60q73 0 116.5 -39.5t43.5 -104.5q0 -93 -62 -151.5t-155 -58.5q-73 0 -116.5 38t-43.5 103zM842 1626q0 -28 17.5 -43.5t49.5 -15.5q43 0 71 27.5 t28 74.5q0 64 -70 64q-43 0 -69.5 -29t-26.5 -78z" />
<glyph unicode="&#xc6;" horiz-adv-x="1783" d="M16 0l844 1401h1065l-37 -207h-682l-2 -367h553l-35 -204h-520l-4 -418h516l-35 -205h-718l4 350h-486l-207 -350h-256zM592 543h375l6 663z" />
<glyph unicode="&#xc7;" horiz-adv-x="1097" d="M195 334q0 115 42.5 364t92.5 379q69 174 200.5 260t366.5 86q207 0 363 -43l-60 -211q-162 48 -330 48q-139 0 -209 -45.5t-110 -163.5q-30 -82 -71.5 -326t-41.5 -303q0 -109 56 -152t202 -43q173 0 340 45l-14 -209q-153 -40 -358 -43l-27 -61q92 -2 137 -24t45 -74 q0 -17 -2 -25l-14 -82q-13 -73 -70.5 -101t-173.5 -28q-91 0 -186 19l45 116q65 -16 145 -16q69 0 74 27l10 55q1 18 -11.5 23.5t-45.5 5.5q-20 0 -41 -7l-70 37l62 142q-99 9 -167.5 36.5t-107 74t-55 104t-16.5 135.5z" />
<glyph unicode="&#xc8;" horiz-adv-x="1089" d="M145 0l246 1401h838l-37 -207h-600l-66 -373h537l-37 -205h-534l-72 -411h600l-35 -205h-840zM627 1655l43 188l370 -213l-63 -147z" />
<glyph unicode="&#xc9;" horiz-adv-x="1089" d="M145 0l246 1401h838l-37 -207h-600l-66 -373h537l-37 -205h-534l-72 -411h600l-35 -205h-840zM674 1630l444 213l-22 -188l-410 -172z" />
<glyph unicode="&#xca;" horiz-adv-x="1089" d="M145 0l246 1401h838l-37 -207h-600l-66 -373h537l-37 -205h-534l-72 -411h600l-35 -205h-840zM516 1622l352 203l291 -205l-82 -135l-243 147l-297 -149z" />
<glyph unicode="&#xcb;" horiz-adv-x="1089" d="M145 0l246 1401h838l-37 -207h-600l-66 -373h537l-37 -205h-534l-72 -411h600l-35 -205h-840zM530 1583q0 37 21 123q11 40 37 55t88 15q58 0 79 -13t21 -47q0 -58 -24 -135q-10 -34 -36 -46.5t-85 -12.5q-58 0 -79.5 13t-21.5 48zM930 1583q0 41 20 123q12 41 37.5 55.5 t87.5 14.5q58 0 79.5 -13t21.5 -47q0 -55 -25 -135q-12 -34 -37.5 -46.5t-83.5 -12.5t-79 13t-21 48z" />
<glyph unicode="&#xcc;" horiz-adv-x="546" d="M154 0l245 1401h238l-246 -1401h-237zM315 1655l43 188l371 -213l-63 -147z" />
<glyph unicode="&#xcd;" horiz-adv-x="546" d="M154 0l245 1401h238l-246 -1401h-237zM395 1630l445 213l-23 -188l-409 -172z" />
<glyph unicode="&#xce;" horiz-adv-x="546" d="M154 0l245 1401h238l-246 -1401h-237zM240 1622l352 203l291 -205l-82 -135l-244 147l-297 -149z" />
<glyph unicode="&#xcf;" horiz-adv-x="546" d="M154 0l245 1401h238l-246 -1401h-237zM244 1583q0 41 20 123q11 40 37 55t88 15q58 0 79 -13t21 -47q0 -58 -24 -135q-10 -34 -36 -46.5t-85 -12.5q-58 0 -79 13t-21 48zM643 1583q0 37 21 123q12 41 37 55.5t87 14.5q58 0 79.5 -13t21.5 -47q0 -55 -25 -135 q-12 -34 -37.5 -46.5t-83.5 -12.5t-79 13t-21 48z" />
<glyph unicode="&#xd0;" horiz-adv-x="1249" d="M115 606l35 199h139l104 596h471q126 0 212.5 -24t134 -72t67.5 -109.5t20 -146.5q0 -116 -37.5 -339.5t-80.5 -357.5q-40 -120 -104 -194.5t-178 -116t-284 -41.5h-467l107 606h-139zM420 205h225q141 0 208.5 49t102.5 168q31 104 66 310t35 280q0 101 -52 142.5 t-184 41.5h-227l-70 -391h269l-35 -199h-269z" />
<glyph unicode="&#xd1;" horiz-adv-x="1349" d="M145 0l246 1401h268l373 -1024l182 1024h232l-246 -1401h-268l-379 1001l-176 -1001h-232zM655 1667q41 38 96.5 63t106.5 25q62 0 137 -33.5t105 -33.5q82 0 147 65l19 -135q-37 -43 -91.5 -67.5t-113.5 -24.5q-53 1 -124.5 34t-109.5 33q-77 0 -157 -65z" />
<glyph unicode="&#xd2;" horiz-adv-x="1306" d="M201 365q0 97 34.5 312t77.5 345q32 96 78 167t115 125t168.5 81.5t228.5 27.5t218 -27t139 -80t71 -121t21 -161q0 -111 -34 -319t-81 -342q-26 -75 -59 -134t-82.5 -109t-112 -83t-147 -51.5t-187.5 -18.5t-181 18.5t-128.5 51t-81.5 82t-44 106.5t-13 130zM442 391 q0 -109 54 -159t190 -50q150 0 222.5 61t109.5 197q32 121 63 304t31 266q0 108 -55 158.5t-191 50.5q-148 0 -219 -58.5t-108 -191.5q-31 -106 -64 -304t-33 -274zM692 1655l43 188l371 -213l-64 -147z" />
<glyph unicode="&#xd3;" horiz-adv-x="1306" d="M201 365q0 97 34.5 312t77.5 345q32 96 78 167t115 125t168.5 81.5t228.5 27.5t218 -27t139 -80t71 -121t21 -161q0 -111 -34 -319t-81 -342q-26 -75 -59 -134t-82.5 -109t-112 -83t-147 -51.5t-187.5 -18.5t-181 18.5t-128.5 51t-81.5 82t-44 106.5t-13 130zM442 391 q0 -109 54 -159t190 -50q150 0 222.5 61t109.5 197q32 121 63 304t31 266q0 108 -55 158.5t-191 50.5q-148 0 -219 -58.5t-108 -191.5q-31 -106 -64 -304t-33 -274zM770 1630l444 213l-22 -188l-410 -172z" />
<glyph unicode="&#xd4;" horiz-adv-x="1306" d="M201 365q0 97 34.5 312t77.5 345q32 96 78 167t115 125t168.5 81.5t228.5 27.5t218 -27t139 -80t71 -121t21 -161q0 -111 -34 -319t-81 -342q-26 -75 -59 -134t-82.5 -109t-112 -83t-147 -51.5t-187.5 -18.5t-181 18.5t-128.5 51t-81.5 82t-44 106.5t-13 130zM442 391 q0 -109 54 -159t190 -50q150 0 222.5 61t109.5 197q32 121 63 304t31 266q0 108 -55 158.5t-191 50.5q-148 0 -219 -58.5t-108 -191.5q-31 -106 -64 -304t-33 -274zM614 1622l353 203l290 -205l-81 -135l-244 147l-297 -149z" />
<glyph unicode="&#xd5;" horiz-adv-x="1306" d="M201 365q0 97 34.5 312t77.5 345q32 96 78 167t115 125t168.5 81.5t228.5 27.5t218 -27t139 -80t71 -121t21 -161q0 -111 -34 -319t-81 -342q-26 -75 -59 -134t-82.5 -109t-112 -83t-147 -51.5t-187.5 -18.5t-181 18.5t-128.5 51t-81.5 82t-44 106.5t-13 130zM442 391 q0 -109 54 -159t190 -50q150 0 222.5 61t109.5 197q32 121 63 304t31 266q0 108 -55 158.5t-191 50.5q-148 0 -219 -58.5t-108 -191.5q-31 -106 -64 -304t-33 -274zM635 1667q41 38 96.5 63t106.5 25q62 0 136.5 -33.5t104.5 -33.5q83 0 148 65l18 -135q-37 -43 -91.5 -67.5 t-113.5 -24.5q-53 1 -124 34t-109 33q-78 0 -158 -65z" />
<glyph unicode="&#xd6;" horiz-adv-x="1306" d="M201 365q0 97 34.5 312t77.5 345q32 96 78 167t115 125t168.5 81.5t228.5 27.5t218 -27t139 -80t71 -121t21 -161q0 -111 -34 -319t-81 -342q-26 -75 -59 -134t-82.5 -109t-112 -83t-147 -51.5t-187.5 -18.5t-181 18.5t-128.5 51t-81.5 82t-44 106.5t-13 130zM442 391 q0 -109 54 -159t190 -50q150 0 222.5 61t109.5 197q32 121 63 304t31 266q0 108 -55 158.5t-191 50.5q-148 0 -219 -58.5t-108 -191.5q-31 -106 -64 -304t-33 -274zM618 1583q0 37 21 123q11 40 37 55t88 15q58 0 79 -13t21 -47q0 -58 -24 -135q-10 -34 -36 -46.5t-85 -12.5 q-58 0 -79.5 13t-21.5 48zM1018 1583q0 41 20 123q12 41 37.5 55.5t87.5 14.5q58 0 79.5 -13t21.5 -47q0 -55 -25 -135q-12 -34 -37.5 -46.5t-83.5 -12.5t-79 13t-21 48z" />
<glyph unicode="&#xd7;" horiz-adv-x="1024" d="M205 344l284 242l-200 241l137 117l199 -244l284 244l109 -133l-285 -242l201 -241l-137 -117l-199 244l-285 -244z" />
<glyph unicode="&#xd8;" horiz-adv-x="1306" d="M160 -53l112 159q-71 88 -71 259q0 97 34.5 312t77.5 345q32 96 78 167t115 125t168.5 81.5t228.5 27.5q168 0 268 -47l101 144l119 -70l-111 -156q72 -90 72 -260q0 -111 -34 -319t-81 -342q-26 -75 -59 -134t-82.5 -109t-112 -83t-147 -51.5t-187.5 -18.5 q-159 0 -264 46l-104 -148zM442 391q0 -29 2 -41l590 834q-59 35 -168 35q-148 0 -219 -58.5t-108 -191.5q-31 -106 -64 -304t-33 -274zM520 215q56 -33 166 -33q150 0 222.5 61t109.5 197q32 121 63 304t31 266q0 7 -1 21t-1 20z" />
<glyph unicode="&#xd9;" horiz-adv-x="1298" d="M207 344q0 62 12 129l162 928h237l-163 -930q-11 -64 -11 -92q0 -97 57 -145t181 -48q147 0 222 69t102 216l163 930h238l-164 -928q-15 -84 -42.5 -155.5t-76 -135.5t-113.5 -108.5t-158.5 -70.5t-207.5 -26q-438 0 -438 367zM688 1655l43 188l371 -213l-64 -147z" />
<glyph unicode="&#xda;" horiz-adv-x="1298" d="M207 344q0 62 12 129l162 928h237l-163 -930q-11 -64 -11 -92q0 -97 57 -145t181 -48q147 0 222 69t102 216l163 930h238l-164 -928q-15 -84 -42.5 -155.5t-76 -135.5t-113.5 -108.5t-158.5 -70.5t-207.5 -26q-438 0 -438 367zM766 1630l444 213l-22 -188l-410 -172z" />
<glyph unicode="&#xdb;" horiz-adv-x="1298" d="M207 344q0 62 12 129l162 928h237l-163 -930q-11 -64 -11 -92q0 -97 57 -145t181 -48q147 0 222 69t102 216l163 930h238l-164 -928q-15 -84 -42.5 -155.5t-76 -135.5t-113.5 -108.5t-158.5 -70.5t-207.5 -26q-438 0 -438 367zM610 1622l353 203l290 -205l-82 -135 l-243 147l-297 -149z" />
<glyph unicode="&#xdc;" horiz-adv-x="1298" d="M207 344q0 62 12 129l162 928h237l-163 -930q-11 -64 -11 -92q0 -97 57 -145t181 -48q147 0 222 69t102 216l163 930h238l-164 -928q-15 -84 -42.5 -155.5t-76 -135.5t-113.5 -108.5t-158.5 -70.5t-207.5 -26q-438 0 -438 367zM612 1583q0 37 21 123q11 40 37 55t88 15 q58 0 79 -13t21 -47q0 -58 -24 -135q-10 -34 -36 -46.5t-85 -12.5q-58 0 -79.5 13t-21.5 48zM1012 1583q0 41 20 123q12 41 37.5 55.5t87.5 14.5q58 0 79 -13t21 -47q0 -58 -24 -135q-12 -34 -37.5 -46.5t-83.5 -12.5t-79 13t-21 48z" />
<glyph unicode="&#xdd;" horiz-adv-x="1142" d="M248 1401h256l196 -658l428 658h254l-608 -914l-86 -487h-235l84 487zM688 1630l445 213l-23 -188l-410 -172z" />
<glyph unicode="&#xde;" horiz-adv-x="1163" d="M147 0l246 1401h238l-41 -236h301q99 0 166.5 -17.5t106 -52.5t55 -81.5t16.5 -110.5q0 -87 -25 -222.5t-73 -225.5q-54 -104 -150.5 -154.5t-255.5 -50.5h-303l-43 -250h-238zM463 455h268q91 0 138 26.5t71 87.5q22 55 35.5 132.5t13.5 132.5q0 72 -39 98t-139 26h-258 z" />
<glyph unicode="&#xdf;" horiz-adv-x="1212" d="M141 0l185 1057q34 191 152.5 294t320.5 103q168 0 258 -68t90 -194q0 -65 -19.5 -119t-42.5 -85.5t-69 -82.5q-17 -19 -47.5 -50.5t-45 -48t-27.5 -37.5t-13 -38q0 -14 4.5 -25t20 -25t26.5 -22t43 -30t51 -35q84 -60 120 -110t36 -134q0 -191 -99.5 -282t-308.5 -91 q-122 0 -258 39l62 187q97 -41 215 -41q86 0 122.5 31t36.5 104q0 35 -23.5 59t-86.5 66q-13 8 -19 12q-92 60 -119 86q-57 57 -57 139q0 38 8 69.5t28 62.5t34 48t47 52t45 49q40 45 60 70t39.5 65.5t19.5 77.5q0 119 -158 119q-97 0 -146.5 -50.5t-68.5 -160.5l-186 -1061 h-230z" />
<glyph unicode="&#xe0;" horiz-adv-x="1083" d="M158 246q0 109 23 242.5t67 240.5q60 156 171.5 226.5t317.5 70.5q175 0 383 -29l-176 -997h-201l-6 68q-61 -38 -144 -64.5t-157 -26.5q-152 0 -215 66t-63 203zM395 299q0 -71 29 -102t104 -31q100 0 228 74l104 587q-83 13 -160 13q-109 0 -163 -43.5t-82 -137.5 q-60 -202 -60 -360zM496 1290l43 189l370 -213l-63 -148z" />
<glyph unicode="&#xe1;" horiz-adv-x="1083" d="M158 246q0 109 23 242.5t67 240.5q60 156 171.5 226.5t317.5 70.5q175 0 383 -29l-176 -997h-201l-6 68q-61 -38 -144 -64.5t-157 -26.5q-152 0 -215 66t-63 203zM395 299q0 -71 29 -102t104 -31q100 0 228 74l104 587q-83 13 -160 13q-109 0 -163 -43.5t-82 -137.5 q-60 -202 -60 -360zM555 1266l444 213l-22 -189l-410 -172z" />
<glyph unicode="&#xe2;" horiz-adv-x="1083" d="M158 246q0 109 23 242.5t67 240.5q60 156 171.5 226.5t317.5 70.5q175 0 383 -29l-176 -997h-201l-6 68q-61 -38 -144 -64.5t-157 -26.5q-152 0 -215 66t-63 203zM395 299q0 -71 29 -102t104 -31q100 0 228 74l104 587q-83 13 -160 13q-109 0 -163 -43.5t-82 -137.5 q-60 -202 -60 -360zM410 1257l352 203l291 -205l-82 -135l-244 148l-297 -150z" />
<glyph unicode="&#xe3;" horiz-adv-x="1083" d="M158 246q0 109 23 242.5t67 240.5q60 156 171.5 226.5t317.5 70.5q175 0 383 -29l-176 -997h-201l-6 68q-61 -38 -144 -64.5t-157 -26.5q-152 0 -215 66t-63 203zM395 299q0 -71 29 -102t104 -31q100 0 228 74l104 587q-83 13 -160 13q-109 0 -163 -43.5t-82 -137.5 q-60 -202 -60 -360zM430 1303q41 38 96.5 63t106.5 25q62 0 136.5 -34t104.5 -34q82 0 148 66l18 -136q-37 -43 -91.5 -67.5t-112.5 -24.5q-53 1 -124.5 34.5t-109.5 33.5q-77 0 -158 -66z" />
<glyph unicode="&#xe4;" horiz-adv-x="1083" d="M158 246q0 109 23 242.5t67 240.5q60 156 171.5 226.5t317.5 70.5q175 0 383 -29l-176 -997h-201l-6 68q-61 -38 -144 -64.5t-157 -26.5q-152 0 -215 66t-63 203zM395 299q0 -71 29 -102t104 -31q100 0 228 74l104 587q-83 13 -160 13q-109 0 -163 -43.5t-82 -137.5 q-60 -202 -60 -360zM412 1219q0 40 20 122q11 40 37 55t88 15q58 0 79 -12.5t21 -46.5q0 -58 -24 -135q-11 -34 -37 -47t-84 -13t-79 13t-21 49zM811 1219q0 40 20 122q12 41 37.5 55.5t87.5 14.5q58 0 79.5 -12.5t21.5 -46.5q0 -55 -25 -135q-12 -34 -37.5 -47t-83.5 -13 t-79 13t-21 49z" />
<glyph unicode="&#xe5;" horiz-adv-x="1083" d="M158 246q0 109 23 242.5t67 240.5q60 156 171.5 226.5t317.5 70.5q175 0 383 -29l-176 -997h-201l-6 68q-61 -38 -144 -64.5t-157 -26.5q-152 0 -215 66t-63 203zM395 299q0 -71 29 -102t104 -31q100 0 228 74l104 587q-83 13 -160 13q-109 0 -163 -43.5t-82 -137.5 q-60 -202 -60 -360zM547 1249q0 93 62 153t155 60q73 0 116.5 -39t43.5 -104q0 -93 -62 -152t-155 -59q-73 0 -116.5 38t-43.5 103zM653 1262q0 -28 18 -44t50 -16q43 0 70.5 28t27.5 75q0 63 -69 63q-43 0 -70 -28.5t-27 -77.5z" />
<glyph unicode="&#xe6;" horiz-adv-x="1550" d="M133 193q0 78 28 164t85 137q60 55 158.5 72.5t271.5 17.5q39 0 92 -2l12 57q11 61 11 90q0 54 -35.5 83.5t-122.5 29.5q-150 0 -326 -51l19 184q176 51 372 51q193 0 271 -96q126 96 303 96q179 0 253 -71.5t74 -211.5q0 -160 -101 -255t-318 -95q-82 0 -211 17 q-13 -57 -13 -107q0 -82 43 -111.5t144 -29.5q180 0 348 49l-16 -184q-206 -50 -392 -50q-233 0 -311 123q-103 -67 -190.5 -95t-198.5 -28q-115 0 -182.5 52.5t-67.5 163.5zM365 242q0 -47 26 -66.5t78 -19.5q121 0 260 84q-2 10 -2 30q0 59 14 150q-43 2 -139 2 q-127 0 -182 -38.5t-55 -141.5zM997 582q95 -19 177 -19q206 0 206 162q0 59 -34.5 88t-112.5 29q-155 0 -207 -148q-21 -63 -29 -112z" />
<glyph unicode="&#xe7;" horiz-adv-x="874" d="M156 285q0 97 22 219t62 227q38 101 94.5 164.5t149 98t225.5 34.5q132 0 264 -24l-53 -197q-127 29 -238 29q-92 0 -141.5 -32t-81.5 -126q-29 -76 -48.5 -183t-19.5 -180q0 -80 39.5 -112.5t138.5 -32.5q87 0 242 31l-12 -195q-156 -27 -269 -29l-26 -61q92 -2 137 -24 t45 -74q0 -17 -2 -25l-14 -82q-13 -73 -70.5 -101t-173.5 -28q-91 0 -186 19l45 116q65 -16 145 -16q69 0 74 27l10 55q1 18 -11.5 23.5t-45.5 5.5q-20 0 -41 -7l-70 37l64 144q-139 18 -196.5 91.5t-57.5 207.5z" />
<glyph unicode="&#xe8;" horiz-adv-x="983" d="M160 285q0 102 21.5 224.5t62.5 221.5q56 143 163.5 219t294.5 76q179 0 255.5 -71t76.5 -207q0 -160 -102.5 -256.5t-319.5 -96.5q-102 0 -213 17q-12 -79 -12 -111q0 -81 43.5 -110t144.5 -29q168 0 347 51l-17 -184q-195 -52 -391 -52q-192 0 -273 75t-81 233z M430 582q99 -17 176 -17q207 0 207 160q0 60 -34.5 89.5t-110.5 29.5q-89 0 -138.5 -39t-76.5 -125q-13 -42 -23 -98zM481 1290l43 189l371 -213l-64 -148z" />
<glyph unicode="&#xe9;" horiz-adv-x="983" d="M160 285q0 102 21.5 224.5t62.5 221.5q56 143 163.5 219t294.5 76q179 0 255.5 -71t76.5 -207q0 -160 -102.5 -256.5t-319.5 -96.5q-102 0 -213 17q-12 -79 -12 -111q0 -81 43.5 -110t144.5 -29q168 0 347 51l-17 -184q-195 -52 -391 -52q-192 0 -273 75t-81 233z M430 582q99 -17 176 -17q207 0 207 160q0 60 -34.5 89.5t-110.5 29.5q-89 0 -138.5 -39t-76.5 -125q-13 -42 -23 -98zM559 1266l445 213l-23 -189l-410 -172z" />
<glyph unicode="&#xea;" horiz-adv-x="983" d="M160 285q0 102 21.5 224.5t62.5 221.5q56 143 163.5 219t294.5 76q179 0 255.5 -71t76.5 -207q0 -160 -102.5 -256.5t-319.5 -96.5q-102 0 -213 17q-12 -79 -12 -111q0 -81 43.5 -110t144.5 -29q168 0 347 51l-17 -184q-195 -52 -391 -52q-192 0 -273 75t-81 233z M406 1257l352 203l291 -205l-82 -135l-244 148l-297 -150zM430 582q99 -17 176 -17q207 0 207 160q0 60 -34.5 89.5t-110.5 29.5q-89 0 -138.5 -39t-76.5 -125q-13 -42 -23 -98z" />
<glyph unicode="&#xeb;" horiz-adv-x="983" d="M160 285q0 102 21.5 224.5t62.5 221.5q56 143 163.5 219t294.5 76q179 0 255.5 -71t76.5 -207q0 -160 -102.5 -256.5t-319.5 -96.5q-102 0 -213 17q-12 -79 -12 -111q0 -81 43.5 -110t144.5 -29q168 0 347 51l-17 -184q-195 -52 -391 -52q-192 0 -273 75t-81 233z M410 1219q0 40 20 122q11 40 37 55t88 15q58 0 79 -12.5t21 -46.5q0 -58 -24 -135q-11 -34 -37 -47t-84 -13t-79 13t-21 49zM430 582q99 -17 176 -17q207 0 207 160q0 60 -34.5 89.5t-110.5 29.5q-89 0 -138.5 -39t-76.5 -125q-13 -42 -23 -98zM809 1219q0 40 20 122 q12 41 37.5 55.5t87.5 14.5q58 0 79.5 -12.5t21.5 -46.5q0 -55 -25 -135q-12 -34 -37.5 -47t-83.5 -13t-79 13t-21 49z" />
<glyph unicode="&#xec;" horiz-adv-x="514" d="M141 0l176 1006h232l-176 -1006h-232zM236 1290l43 189l370 -213l-63 -148z" />
<glyph unicode="&#xed;" horiz-adv-x="514" d="M141 0l176 1006h232l-176 -1006h-232zM313 1266l445 213l-23 -189l-409 -172z" />
<glyph unicode="&#xee;" horiz-adv-x="514" d="M141 0l176 1006h232l-176 -1006h-232zM158 1257l352 203l291 -205l-82 -135l-244 148l-297 -150z" />
<glyph unicode="&#xef;" horiz-adv-x="514" d="M141 0l176 1006h232l-176 -1006h-232zM162 1219q0 40 20 122q11 40 37 55t88 15q58 0 79.5 -12.5t21.5 -46.5q0 -55 -25 -135q-11 -34 -37 -47t-84 -13t-79 13t-21 49zM561 1219q0 36 21 122q12 41 37.5 55.5t87.5 14.5q58 0 79 -12.5t21 -46.5q0 -55 -25 -135 q-12 -34 -37 -47t-83 -13t-79.5 13.5t-21.5 48.5z" />
<glyph unicode="&#xf0;" horiz-adv-x="1093" d="M158 295q0 85 26.5 220t75.5 224q63 113 168 167.5t274 54.5q85 0 142 -33q-3 120 -78 221l-186 -115l-52 99l162 98q-74 63 -190 127l198 82q112 -39 185 -92l149 92l51 -97l-116 -71q131 -151 131 -434q0 -94 -21.5 -253t-56.5 -278q-97 -330 -488 -330 q-205 0 -289.5 79.5t-84.5 238.5zM391 309q0 -77 38 -110t136 -33q92 0 142 31t77 100q21 54 41.5 164t20.5 164q0 77 -39 110t-135 33q-95 0 -145 -32t-78 -107q-24 -64 -41 -167.5t-17 -152.5z" />
<glyph unicode="&#xf1;" horiz-adv-x="1091" d="M137 0l176 1006h195l8 -93q93 48 197 80.5t188 32.5q201 0 201 -182q0 -38 -6 -84l-135 -760h-232l125 713q2 10 2 32q0 70 -78 70q-49 0 -129.5 -27.5t-152.5 -64.5l-127 -723h-232zM463 1303q41 38 96.5 63t106.5 25q62 0 136.5 -34t104.5 -34q82 0 148 66l18 -136 q-37 -43 -91.5 -67.5t-113.5 -24.5q-53 1 -124 34.5t-109 33.5q-77 0 -158 -66z" />
<glyph unicode="&#xf2;" horiz-adv-x="1077" d="M162 305q0 103 22.5 218.5t65.5 211.5q39 95 96 157.5t150.5 99t222.5 36.5q201 0 284.5 -83.5t83.5 -242.5q0 -96 -22.5 -213.5t-63.5 -214.5q-39 -97 -95.5 -160.5t-150 -100t-223.5 -36.5q-104 0 -177 22t-114.5 66t-60 102.5t-18.5 137.5zM395 322q0 -81 38.5 -117.5 t133.5 -36.5q100 0 149 38.5t77 135.5q26 67 43.5 169.5t17.5 174.5q0 80 -37.5 115t-132.5 35q-94 0 -143.5 -34.5t-77.5 -117.5q-30 -77 -49 -182t-19 -180zM514 1290l43 189l371 -213l-64 -148z" />
<glyph unicode="&#xf3;" horiz-adv-x="1077" d="M162 305q0 103 22.5 218.5t65.5 211.5q39 95 96 157.5t150.5 99t222.5 36.5q201 0 284.5 -83.5t83.5 -242.5q0 -96 -22.5 -213.5t-63.5 -214.5q-39 -97 -95.5 -160.5t-150 -100t-223.5 -36.5q-104 0 -177 22t-114.5 66t-60 102.5t-18.5 137.5zM395 322q0 -81 38.5 -117.5 t133.5 -36.5q100 0 149 38.5t77 135.5q26 67 43.5 169.5t17.5 174.5q0 80 -37.5 115t-132.5 35q-94 0 -143.5 -34.5t-77.5 -117.5q-30 -77 -49 -182t-19 -180zM592 1266l444 213l-22 -189l-410 -172z" />
<glyph unicode="&#xf4;" horiz-adv-x="1077" d="M162 305q0 103 22.5 218.5t65.5 211.5q39 95 96 157.5t150.5 99t222.5 36.5q201 0 284.5 -83.5t83.5 -242.5q0 -96 -22.5 -213.5t-63.5 -214.5q-39 -97 -95.5 -160.5t-150 -100t-223.5 -36.5q-104 0 -177 22t-114.5 66t-60 102.5t-18.5 137.5zM395 322q0 -81 38.5 -117.5 t133.5 -36.5q100 0 149 38.5t77 135.5q26 67 43.5 169.5t17.5 174.5q0 80 -37.5 115t-132.5 35q-94 0 -143.5 -34.5t-77.5 -117.5q-30 -77 -49 -182t-19 -180zM436 1257l352 203l291 -205l-82 -135l-243 148l-297 -150z" />
<glyph unicode="&#xf5;" horiz-adv-x="1077" d="M162 305q0 103 22.5 218.5t65.5 211.5q39 95 96 157.5t150.5 99t222.5 36.5q201 0 284.5 -83.5t83.5 -242.5q0 -96 -22.5 -213.5t-63.5 -214.5q-39 -97 -95.5 -160.5t-150 -100t-223.5 -36.5q-104 0 -177 22t-114.5 66t-60 102.5t-18.5 137.5zM395 322q0 -81 38.5 -117.5 t133.5 -36.5q100 0 149 38.5t77 135.5q26 67 43.5 169.5t17.5 174.5q0 80 -37.5 115t-132.5 35q-94 0 -143.5 -34.5t-77.5 -117.5q-30 -77 -49 -182t-19 -180zM457 1303q41 38 96 63t106 25q62 0 137 -34t105 -34q82 0 148 66l18 -136q-37 -43 -91.5 -67.5t-113.5 -24.5 q-53 1 -124 34.5t-109 33.5q-77 0 -158 -66z" />
<glyph unicode="&#xf6;" horiz-adv-x="1077" d="M162 305q0 103 22.5 218.5t65.5 211.5q39 95 96 157.5t150.5 99t222.5 36.5q201 0 284.5 -83.5t83.5 -242.5q0 -96 -22.5 -213.5t-63.5 -214.5q-39 -97 -95.5 -160.5t-150 -100t-223.5 -36.5q-104 0 -177 22t-114.5 66t-60 102.5t-18.5 137.5zM395 322q0 -81 38.5 -117.5 t133.5 -36.5q100 0 149 38.5t77 135.5q26 67 43.5 169.5t17.5 174.5q0 80 -37.5 115t-132.5 35q-94 0 -143.5 -34.5t-77.5 -117.5q-30 -77 -49 -182t-19 -180zM440 1219q0 36 21 122q11 40 37 55t88 15q58 0 79 -12.5t21 -46.5q0 -58 -24 -135q-11 -34 -37 -47t-84 -13 t-79.5 13.5t-21.5 48.5zM840 1219q0 40 20 122q12 41 37.5 55.5t87.5 14.5q58 0 79 -12.5t21 -46.5q0 -58 -24 -135q-12 -34 -37.5 -47t-83.5 -13t-79 13t-21 49z" />
<glyph unicode="&#xf7;" horiz-adv-x="1024" d="M201 489l30 177h791l-29 -177h-792zM430 154q0 56 25 133q11 36 36.5 50.5t81.5 14.5q55 0 76 -13t21 -46q0 -75 -27 -139q-12 -33 -37 -45.5t-80 -12.5t-75.5 12.5t-20.5 45.5zM555 864q0 58 25 131q11 37 36 51.5t82 14.5q55 0 76 -12.5t21 -44.5q0 -78 -27 -140 q-11 -33 -36.5 -46t-80.5 -13t-75.5 13t-20.5 46z" />
<glyph unicode="&#xf8;" horiz-adv-x="1077" d="M133 -61l100 133q-71 76 -71 233q0 103 22.5 218.5t65.5 211.5q39 95 96 157.5t150.5 99t222.5 36.5q117 0 201 -33l98 131l100 -63l-100 -135q69 -77 69 -226q0 -96 -22.5 -213.5t-63.5 -214.5q-39 -97 -95.5 -160.5t-150 -100t-223.5 -36.5q-109 0 -200 31l-99 -133z M395 291l393 528q-46 17 -104 17q-94 0 -143.5 -34.5t-77.5 -117.5q-30 -77 -49 -182t-19 -180v-31zM463 184q36 -16 104 -16q100 0 149 38.5t77 135.5q26 67 43.5 169.5t17.5 174.5v21z" />
<glyph unicode="&#xf9;" horiz-adv-x="1091" d="M164 164q0 36 6 80l135 762h232l-127 -715q-2 -12 -2 -33q0 -70 77 -70q48 0 128 27.5t157 65.5l127 725h231l-176 -1006h-194l-8 88q-90 -47 -193 -79t-188 -32q-205 0 -205 187zM522 1290l43 189l371 -213l-64 -148z" />
<glyph unicode="&#xfa;" horiz-adv-x="1091" d="M164 164q0 36 6 80l135 762h232l-127 -715q-2 -12 -2 -33q0 -70 77 -70q48 0 128 27.5t157 65.5l127 725h231l-176 -1006h-194l-8 88q-90 -47 -193 -79t-188 -32q-205 0 -205 187zM600 1266l444 213l-22 -189l-410 -172z" />
<glyph unicode="&#xfb;" horiz-adv-x="1091" d="M164 164q0 36 6 80l135 762h232l-127 -715q-2 -12 -2 -33q0 -70 77 -70q48 0 128 27.5t157 65.5l127 725h231l-176 -1006h-194l-8 88q-90 -47 -193 -79t-188 -32q-205 0 -205 187zM444 1257l353 203l290 -205l-81 -135l-244 148l-297 -150z" />
<glyph unicode="&#xfc;" horiz-adv-x="1091" d="M164 164q0 36 6 80l135 762h232l-127 -715q-2 -12 -2 -33q0 -70 77 -70q48 0 128 27.5t157 65.5l127 725h231l-176 -1006h-194l-8 88q-90 -47 -193 -79t-188 -32q-205 0 -205 187zM446 1219q0 36 21 122q11 40 37 55t88 15q58 0 79 -12.5t21 -46.5q0 -58 -24 -135 q-11 -34 -37 -47t-84 -13t-79.5 13.5t-21.5 48.5zM846 1219q0 40 20 122q12 41 37.5 55.5t87.5 14.5q58 0 79.5 -12.5t21.5 -46.5q0 -55 -25 -135q-12 -34 -37.5 -47t-83.5 -13t-79 13t-21 49z" />
<glyph unicode="&#xfd;" horiz-adv-x="987" d="M166 -406l223 400l-203 1012h244l119 -719l360 719h246l-760 -1412h-229zM547 1266l444 213l-22 -189l-410 -172z" />
<glyph unicode="&#xfe;" horiz-adv-x="1093" d="M59 -422l326 1845l238 31l-93 -520q61 40 138 65t151 25q157 0 222 -71.5t65 -207.5q0 -189 -66 -413q-25 -85 -56.5 -145.5t-80.5 -110t-121.5 -74.5t-169.5 -25q-104 0 -243 27l-70 -395zM401 195q121 -31 209 -31q83 0 124 39.5t69 120.5q27 84 46 193.5t19 182.5 q0 70 -29.5 104t-97.5 34q-60 0 -128 -29t-115 -68z" />
<glyph unicode="&#xff;" horiz-adv-x="987" d="M166 -406l223 400l-203 1012h244l119 -719l360 719h246l-760 -1412h-229zM395 1219q0 36 21 122q11 40 37 55t88 15q58 0 79 -12.5t21 -46.5q0 -55 -25 -135q-11 -34 -36.5 -47t-83.5 -13t-79.5 13.5t-21.5 48.5zM795 1219q0 40 20 122q12 41 37.5 55.5t87.5 14.5 q58 0 79 -12.5t21 -46.5q0 -58 -24 -135q-12 -34 -37.5 -47t-83.5 -13t-79 13t-21 49z" />
<glyph unicode="&#x152;" horiz-adv-x="1845" d="M205 383q0 121 38.5 338t94.5 342q77 172 209.5 261t359.5 89q90 0 246 -12h832l-35 -205h-600l-66 -369h537l-37 -204h-535l-73 -418h600l-35 -205h-834q-210 -12 -252 -12q-130 0 -220.5 28.5t-139.5 84t-69.5 123.5t-20.5 159zM444 410q0 -108 54.5 -161.5 t193.5 -53.5q124 0 246 16l174 981q-118 16 -242 16q-144 0 -217 -56t-112 -177q-34 -98 -65.5 -292t-31.5 -273z" />
<glyph unicode="&#x153;" horiz-adv-x="1630" d="M162 303q0 104 22.5 220t65.5 212q58 144 169 217.5t300 73.5q209 0 297 -119q132 119 336 119q179 0 254 -71.5t75 -211.5q0 -76 -23 -138t-71.5 -110.5t-131 -75t-193.5 -26.5q-88 0 -211 19q-13 -66 -13 -111q0 -80 43.5 -109.5t145.5 -29.5q160 0 346 51l-19 -184 q-83 -24 -191.5 -39t-199.5 -15q-211 0 -295 119q-136 -119 -336 -119q-202 0 -286 83.5t-84 244.5zM395 322q0 -81 38.5 -117.5t133.5 -36.5q112 0 160 51.5t80 192.5q21 57 34 141t13 133q0 80 -37.5 115t-132.5 35q-94 0 -143.5 -34.5t-77.5 -117.5q-30 -77 -49 -182 t-19 -180zM1079 582q99 -17 174 -17q209 0 209 160q0 60 -35 89.5t-112 29.5q-88 0 -137 -39t-76 -125q-14 -42 -23 -98z" />
<glyph unicode="&#x178;" horiz-adv-x="1142" d="M248 1401h256l196 -658l428 658h254l-608 -914l-86 -487h-235l84 487zM537 1583q0 41 20 123q11 40 37 55t88 15q58 0 79 -13t21 -47q0 -58 -24 -135q-10 -34 -36 -46.5t-85 -12.5q-58 0 -79 13t-21 48zM936 1583q0 41 20 123q12 41 37.5 55.5t87.5 14.5q58 0 79.5 -13 t21.5 -47q0 -55 -25 -135q-12 -34 -37.5 -46.5t-83.5 -12.5t-79 13t-21 48z" />
<glyph unicode="&#x2c6;" horiz-adv-x="681" d="M240 1257l352 203l291 -205l-82 -135l-244 148l-297 -150z" />
<glyph unicode="&#x2dc;" horiz-adv-x="681" d="M260 1303q41 38 96.5 63t106.5 25q62 0 137 -34t105 -34q81 0 147 66l18 -136q-37 -43 -91.5 -67.5t-112.5 -24.5q-53 1 -124.5 34.5t-109.5 33.5q-77 0 -158 -66z" />
<glyph unicode="&#x2000;" horiz-adv-x="921" />
<glyph unicode="&#x2001;" horiz-adv-x="1843" />
<glyph unicode="&#x2002;" horiz-adv-x="921" />
<glyph unicode="&#x2003;" horiz-adv-x="1843" />
<glyph unicode="&#x2004;" horiz-adv-x="614" />
<glyph unicode="&#x2005;" horiz-adv-x="460" />
<glyph unicode="&#x2006;" horiz-adv-x="307" />
<glyph unicode="&#x2007;" horiz-adv-x="307" />
<glyph unicode="&#x2008;" horiz-adv-x="230" />
<glyph unicode="&#x2009;" horiz-adv-x="368" />
<glyph unicode="&#x200a;" horiz-adv-x="102" />
<glyph unicode="&#x2010;" horiz-adv-x="753" d="M174 453l35 200h561l-35 -200h-561z" />
<glyph unicode="&#x2011;" horiz-adv-x="753" d="M174 453l35 200h561l-35 -200h-561z" />
<glyph unicode="&#x2012;" horiz-adv-x="753" d="M174 453l35 200h561l-35 -200h-561z" />
<glyph unicode="&#x2013;" horiz-adv-x="1024" d="M74 469l30 176h1039l-31 -176h-1038z" />
<glyph unicode="&#x2014;" horiz-adv-x="1705" d="M74 469l30 176h1723l-31 -176h-1722z" />
<glyph unicode="&#x2018;" horiz-adv-x="503" d="M299 995q0 32 6 62l10 69q7 48 41 101l123 207q13 18 29 18q22 0 61 -20q52 -24 52 -31q0 -9 -21 -51l-59 -111q-13 -26 -13 -31q0 -7 13 -20q20 -20 20 -47q0 -67 -20 -129q-15 -44 -45 -62t-90 -18q-57 0 -82 13.5t-25 49.5z" />
<glyph unicode="&#x2019;" horiz-adv-x="503" d="M287 956q0 12 20 52l60 110q12 24 12 31q0 8 -12 20q-21 21 -21 48q0 64 21 129q15 44 45 61.5t90 17.5q57 0 81.5 -13.5t24.5 -49.5q0 -32 -6 -62l-10 -69q-7 -48 -41 -101l-123 -206q-14 -19 -29 -19q-20 0 -61 21q-51 24 -51 30z" />
<glyph unicode="&#x201a;" horiz-adv-x="503" d="M84 -203q0 11 20 51l60 111q12 24 12 31q0 8 -12 20q-21 21 -21 47q0 64 21 129q15 44 45 62t90 18q57 0 82 -13.5t25 -49.5q0 -27 -7 -62l-10 -69q-7 -48 -41 -101l-123 -207q-13 -18 -28 -18q-21 0 -62 21q-51 24 -51 30z" />
<glyph unicode="&#x201c;" horiz-adv-x="913" d="M299 995q0 32 6 62l10 69q7 48 41 101l123 207q13 18 29 18q22 0 61 -20q52 -24 52 -31q0 -9 -21 -51l-59 -111q-13 -26 -13 -31q0 -7 13 -20q20 -20 20 -47q0 -67 -20 -129q-15 -44 -45 -62t-90 -18q-57 0 -82 13.5t-25 49.5zM711 995q0 32 6 62l10 69q7 48 41 101 l123 207q13 18 29 18q22 0 61 -20q51 -24 51 -31q0 -11 -20 -51l-60 -111q-12 -24 -12 -31q0 -8 12 -20q21 -21 21 -47q0 -64 -21 -129q-15 -44 -45 -62t-90 -18q-57 0 -81.5 13.5t-24.5 49.5z" />
<glyph unicode="&#x201d;" horiz-adv-x="913" d="M287 956q0 12 20 52l60 110q12 24 12 31q0 8 -12 20q-21 21 -21 48q0 64 21 129q15 44 45 61.5t90 17.5q57 0 81.5 -13.5t24.5 -49.5q0 -32 -6 -62l-10 -69q-7 -48 -41 -101l-123 -206q-14 -19 -29 -19q-20 0 -61 21q-51 24 -51 30zM698 956q0 10 21 52l59 110 q13 26 13 31q0 7 -13 20q-20 20 -20 48q0 67 20 129q15 44 45 61.5t90 17.5q57 0 82 -13.5t25 -49.5q0 -32 -6 -62l-10 -69q-7 -48 -41 -101l-123 -206q-14 -19 -29 -19q-20 0 -61 21q-52 24 -52 30z" />
<glyph unicode="&#x201e;" horiz-adv-x="913" d="M84 -203q0 11 20 51l60 111q12 24 12 31q0 8 -12 20q-21 21 -21 47q0 64 21 129q15 44 45 62t90 18q57 0 82 -13.5t25 -49.5q0 -27 -7 -62l-10 -69q-7 -48 -41 -101l-123 -207q-13 -18 -28 -18q-21 0 -62 21q-51 24 -51 30zM492 -203q0 11 20 51l59 111q13 26 13 31 q0 7 -13 20q-20 20 -20 47q0 67 20 129q15 44 45.5 62t90.5 18q57 0 81.5 -13.5t24.5 -49.5q0 -32 -6 -62l-10 -69q-7 -48 -41 -101l-123 -207q-13 -18 -29 -18q-20 0 -61 21q-51 24 -51 30z" />
<glyph unicode="&#x2022;" horiz-adv-x="1024" d="M332 711q0 126 87.5 214.5t213.5 88.5t214.5 -88.5t88.5 -214.5t-88.5 -213.5t-214.5 -87.5t-213.5 87.5t-87.5 213.5z" />
<glyph unicode="&#x2026;" horiz-adv-x="1705" d="M172 49q0 60 21 135q14 47 42 65.5t95 18.5q61 0 83.5 -14t22.5 -51q0 -81 -24 -148q-14 -40 -41.5 -54.5t-91.5 -14.5q-61 0 -84 13.5t-23 49.5zM739 49q0 60 21 135q14 47 42 65.5t95 18.5q61 0 84 -14t23 -51q0 -78 -25 -148q-14 -40 -41.5 -54.5t-91.5 -14.5 q-61 0 -84 13.5t-23 49.5zM1309 49q0 63 20 135q14 47 42 65.5t95 18.5q61 0 84 -14t23 -51q0 -78 -25 -148q-14 -40 -41.5 -54.5t-91.5 -14.5q-61 0 -83.5 13.5t-22.5 49.5z" />
<glyph unicode="&#x202f;" horiz-adv-x="368" />
<glyph unicode="&#x2039;" horiz-adv-x="626" d="M160 432l22 135l381 371l121 -139l-315 -312l198 -297l-157 -129z" />
<glyph unicode="&#x203a;" horiz-adv-x="626" d="M117 201l317 311l-201 297l158 129l250 -371l-23 -135l-380 -371z" />
<glyph unicode="&#x205f;" horiz-adv-x="460" />
<glyph unicode="&#x20ac;" d="M158 453l53 157h145l25 150h-170l53 158h152q28 119 70.5 204.5t109.5 150.5t166 97.5t231 32.5q179 0 336 -41l-57 -203q-156 43 -283 43q-158 0 -230.5 -59t-111.5 -225h479l-53 -158h-459l-26 -150h446l-53 -157h-416q0 -5 -3 -33.5t-3 -42.5q0 -108 56 -154.5 t190 -46.5q139 0 321 45l-16 -201q-158 -43 -342 -43q-127 0 -213.5 24t-135.5 72.5t-70 112.5t-21 152q0 74 6 115h-176z" />
<glyph unicode="&#x2122;" horiz-adv-x="1218" d="M301 1296l18 105h420l-18 -105h-148l-77 -432h-123l76 432h-148zM752 864l94 537h127l80 -307l188 307h127l-94 -537h-123l51 281l-127 -203h-98l-55 205l-50 -283h-120z" />
<glyph unicode="&#x25fc;" horiz-adv-x="1003" d="M0 0v1004h1004v-1004h-1004z" />
<glyph unicode="&#xfb01;" horiz-adv-x="1245" d="M121 -422l217 1233h-150l35 190h148l28 156q25 149 116.5 222t270.5 73q104 0 199 -18l-45 -187q-93 19 -164 19t-104 -30.5t-45 -100.5l-25 -134h258l-53 -190h-240l-209 -1202zM872 0l177 1006h231l-176 -1006h-232zM1083 1202q0 68 25 148q14 38 42 52.5t89 14.5 t84 -13.5t23 -49.5q0 -31 -7.5 -76.5t-19.5 -75.5q-13 -37 -40 -50t-89 -13q-61 0 -84 13.5t-23 49.5z" />
<glyph unicode="&#xfb02;" horiz-adv-x="1310" d="M121 -422l217 1233h-150l35 190h148l28 156q25 149 116.5 222t270.5 73q104 0 199 -18l-45 -187q-93 19 -164 19t-104 -30.5t-45 -100.5l-25 -134h258l-53 -190h-240l-209 -1202zM889 111q0 37 20 151l203 1161l240 31l-213 -1202q-6 -42 -6 -47q0 -39 47 -39 q42 0 104 18l14 -172q-124 -32 -243 -32q-91 0 -128.5 32t-37.5 99z" />
</font>
</defs>
</svg>
